%TF.GenerationSoftware,KiCad,Pcbnew,5.1.6-c6e7f7d~87~ubuntu20.04.1*%
%TF.CreationDate,2020-07-24T18:34:01-04:00*%
%TF.ProjectId,GettingStarted,47657474-696e-4675-9374-61727465642e,rev?*%
%TF.SameCoordinates,Original*%
%TF.FileFunction,Copper,L2,Bot*%
%TF.FilePolarity,Positive*%
%FSLAX46Y46*%
G04 Gerber Fmt 4.6, Leading zero omitted, Abs format (unit mm)*
G04 Created by KiCad (PCBNEW 5.1.6-c6e7f7d~87~ubuntu20.04.1) date 2020-07-24 18:34:01*
%MOMM*%
%LPD*%
G01*
G04 APERTURE LIST*
%TA.AperFunction,ComponentPad*%
%ADD10R,1.800000X1.800000*%
%TD*%
%TA.AperFunction,ComponentPad*%
%ADD11C,1.800000*%
%TD*%
%TA.AperFunction,ComponentPad*%
%ADD12C,10.160000*%
%TD*%
%TA.AperFunction,ComponentPad*%
%ADD13C,1.600000*%
%TD*%
%TA.AperFunction,ComponentPad*%
%ADD14O,1.600000X1.600000*%
%TD*%
%TA.AperFunction,ComponentPad*%
%ADD15R,1.600000X1.600000*%
%TD*%
%TA.AperFunction,Conductor*%
%ADD16C,0.250000*%
%TD*%
%TA.AperFunction,Conductor*%
%ADD17C,0.254000*%
%TD*%
G04 APERTURE END LIST*
D10*
%TO.P,D1,1*%
%TO.N,/uCtoLED*%
X129540000Y-82550000D03*
D11*
%TO.P,D1,2*%
%TO.N,/LEDtoR*%
X127000000Y-82550000D03*
%TD*%
D12*
%TO.P,J1,1*%
%TO.N,VCC*%
X129540000Y-114300000D03*
%TO.P,J1,3*%
%TO.N,GND*%
X159510000Y-114300000D03*
%TO.P,J1,2*%
%TO.N,/INPUTtoR*%
X144530000Y-114300000D03*
%TD*%
D13*
%TO.P,R1,1*%
%TO.N,VCC*%
X129540000Y-96520000D03*
D14*
%TO.P,R1,2*%
%TO.N,/LEDtoR*%
X127000000Y-96520000D03*
%TD*%
%TO.P,R2,2*%
%TO.N,/INPUT*%
X165100000Y-91440000D03*
D13*
%TO.P,R2,1*%
%TO.N,/INPUTtoR*%
X165100000Y-93980000D03*
%TD*%
D15*
%TO.P,U1,1*%
%TO.N,VCC*%
X146050000Y-87630000D03*
D14*
%TO.P,U1,5*%
%TO.N,Net-(U1-Pad5)*%
X153670000Y-80010000D03*
%TO.P,U1,2*%
%TO.N,Net-(U1-Pad2)*%
X148590000Y-87630000D03*
%TO.P,U1,6*%
%TO.N,/INPUT*%
X151130000Y-80010000D03*
%TO.P,U1,3*%
%TO.N,Net-(U1-Pad3)*%
X151130000Y-87630000D03*
%TO.P,U1,7*%
%TO.N,/uCtoLED*%
X148590000Y-80010000D03*
%TO.P,U1,4*%
%TO.N,Net-(U1-Pad4)*%
X153670000Y-87630000D03*
%TO.P,U1,8*%
%TO.N,GND*%
X146050000Y-80010000D03*
%TD*%
D16*
%TO.N,GND*%
X147175001Y-81135001D02*
X146050000Y-80010000D01*
X147175001Y-101965001D02*
X147175001Y-81135001D01*
X159510000Y-114300000D02*
X147175001Y-101965001D01*
%TD*%
D17*
%TO.N,GND*%
G36*
X173330000Y-126340000D02*
G01*
X114960000Y-126340000D01*
X114960000Y-113737122D01*
X123825000Y-113737122D01*
X123825000Y-114862878D01*
X124044625Y-115967004D01*
X124475433Y-117007067D01*
X125100870Y-117943100D01*
X125896900Y-118739130D01*
X126832933Y-119364567D01*
X127872996Y-119795375D01*
X128977122Y-120015000D01*
X130102878Y-120015000D01*
X131207004Y-119795375D01*
X132247067Y-119364567D01*
X133183100Y-118739130D01*
X133979130Y-117943100D01*
X134604567Y-117007067D01*
X135035375Y-115967004D01*
X135255000Y-114862878D01*
X135255000Y-113737122D01*
X138815000Y-113737122D01*
X138815000Y-114862878D01*
X139034625Y-115967004D01*
X139465433Y-117007067D01*
X140090870Y-117943100D01*
X140886900Y-118739130D01*
X141822933Y-119364567D01*
X142862996Y-119795375D01*
X143967122Y-120015000D01*
X145092878Y-120015000D01*
X146197004Y-119795375D01*
X147237067Y-119364567D01*
X148173100Y-118739130D01*
X148575034Y-118337196D01*
X155652409Y-118337196D01*
X156238124Y-119019416D01*
X157221704Y-119567045D01*
X158293223Y-119912265D01*
X159411501Y-120041808D01*
X160533565Y-119950697D01*
X161616294Y-119642433D01*
X162618079Y-119128863D01*
X162781876Y-119019416D01*
X163367591Y-118337196D01*
X159510000Y-114479605D01*
X155652409Y-118337196D01*
X148575034Y-118337196D01*
X148969130Y-117943100D01*
X149594567Y-117007067D01*
X150025375Y-115967004D01*
X150245000Y-114862878D01*
X150245000Y-114201501D01*
X153768192Y-114201501D01*
X153859303Y-115323565D01*
X154167567Y-116406294D01*
X154681137Y-117408079D01*
X154790584Y-117571876D01*
X155472804Y-118157591D01*
X159330395Y-114300000D01*
X159689605Y-114300000D01*
X163547196Y-118157591D01*
X164229416Y-117571876D01*
X164777045Y-116588296D01*
X165122265Y-115516777D01*
X165251808Y-114398499D01*
X165160697Y-113276435D01*
X164852433Y-112193706D01*
X164338863Y-111191921D01*
X164229416Y-111028124D01*
X163547196Y-110442409D01*
X159689605Y-114300000D01*
X159330395Y-114300000D01*
X155472804Y-110442409D01*
X154790584Y-111028124D01*
X154242955Y-112011704D01*
X153897735Y-113083223D01*
X153768192Y-114201501D01*
X150245000Y-114201501D01*
X150245000Y-113737122D01*
X150025375Y-112632996D01*
X149594567Y-111592933D01*
X148969130Y-110656900D01*
X148575034Y-110262804D01*
X155652409Y-110262804D01*
X159510000Y-114120395D01*
X163367591Y-110262804D01*
X162781876Y-109580584D01*
X161798296Y-109032955D01*
X160726777Y-108687735D01*
X159608499Y-108558192D01*
X158486435Y-108649303D01*
X157403706Y-108957567D01*
X156401921Y-109471137D01*
X156238124Y-109580584D01*
X155652409Y-110262804D01*
X148575034Y-110262804D01*
X148173100Y-109860870D01*
X147237067Y-109235433D01*
X146197004Y-108804625D01*
X145092878Y-108585000D01*
X143967122Y-108585000D01*
X142862996Y-108804625D01*
X141822933Y-109235433D01*
X140886900Y-109860870D01*
X140090870Y-110656900D01*
X139465433Y-111592933D01*
X139034625Y-112632996D01*
X138815000Y-113737122D01*
X135255000Y-113737122D01*
X135035375Y-112632996D01*
X134604567Y-111592933D01*
X133979130Y-110656900D01*
X133183100Y-109860870D01*
X132247067Y-109235433D01*
X131207004Y-108804625D01*
X130102878Y-108585000D01*
X128977122Y-108585000D01*
X127872996Y-108804625D01*
X126832933Y-109235433D01*
X125896900Y-109860870D01*
X125100870Y-110656900D01*
X124475433Y-111592933D01*
X124044625Y-112632996D01*
X123825000Y-113737122D01*
X114960000Y-113737122D01*
X114960000Y-96378665D01*
X125565000Y-96378665D01*
X125565000Y-96661335D01*
X125620147Y-96938574D01*
X125728320Y-97199727D01*
X125885363Y-97434759D01*
X126085241Y-97634637D01*
X126320273Y-97791680D01*
X126581426Y-97899853D01*
X126858665Y-97955000D01*
X127141335Y-97955000D01*
X127418574Y-97899853D01*
X127679727Y-97791680D01*
X127914759Y-97634637D01*
X128114637Y-97434759D01*
X128270000Y-97202241D01*
X128425363Y-97434759D01*
X128625241Y-97634637D01*
X128860273Y-97791680D01*
X129121426Y-97899853D01*
X129398665Y-97955000D01*
X129681335Y-97955000D01*
X129958574Y-97899853D01*
X130219727Y-97791680D01*
X130454759Y-97634637D01*
X130654637Y-97434759D01*
X130811680Y-97199727D01*
X130919853Y-96938574D01*
X130975000Y-96661335D01*
X130975000Y-96378665D01*
X130919853Y-96101426D01*
X130811680Y-95840273D01*
X130654637Y-95605241D01*
X130454759Y-95405363D01*
X130219727Y-95248320D01*
X129958574Y-95140147D01*
X129681335Y-95085000D01*
X129398665Y-95085000D01*
X129121426Y-95140147D01*
X128860273Y-95248320D01*
X128625241Y-95405363D01*
X128425363Y-95605241D01*
X128270000Y-95837759D01*
X128114637Y-95605241D01*
X127914759Y-95405363D01*
X127679727Y-95248320D01*
X127418574Y-95140147D01*
X127141335Y-95085000D01*
X126858665Y-95085000D01*
X126581426Y-95140147D01*
X126320273Y-95248320D01*
X126085241Y-95405363D01*
X125885363Y-95605241D01*
X125728320Y-95840273D01*
X125620147Y-96101426D01*
X125565000Y-96378665D01*
X114960000Y-96378665D01*
X114960000Y-91298665D01*
X163665000Y-91298665D01*
X163665000Y-91581335D01*
X163720147Y-91858574D01*
X163828320Y-92119727D01*
X163985363Y-92354759D01*
X164185241Y-92554637D01*
X164417759Y-92710000D01*
X164185241Y-92865363D01*
X163985363Y-93065241D01*
X163828320Y-93300273D01*
X163720147Y-93561426D01*
X163665000Y-93838665D01*
X163665000Y-94121335D01*
X163720147Y-94398574D01*
X163828320Y-94659727D01*
X163985363Y-94894759D01*
X164185241Y-95094637D01*
X164420273Y-95251680D01*
X164681426Y-95359853D01*
X164958665Y-95415000D01*
X165241335Y-95415000D01*
X165518574Y-95359853D01*
X165779727Y-95251680D01*
X166014759Y-95094637D01*
X166214637Y-94894759D01*
X166371680Y-94659727D01*
X166479853Y-94398574D01*
X166535000Y-94121335D01*
X166535000Y-93838665D01*
X166479853Y-93561426D01*
X166371680Y-93300273D01*
X166214637Y-93065241D01*
X166014759Y-92865363D01*
X165782241Y-92710000D01*
X166014759Y-92554637D01*
X166214637Y-92354759D01*
X166371680Y-92119727D01*
X166479853Y-91858574D01*
X166535000Y-91581335D01*
X166535000Y-91298665D01*
X166479853Y-91021426D01*
X166371680Y-90760273D01*
X166214637Y-90525241D01*
X166014759Y-90325363D01*
X165779727Y-90168320D01*
X165518574Y-90060147D01*
X165241335Y-90005000D01*
X164958665Y-90005000D01*
X164681426Y-90060147D01*
X164420273Y-90168320D01*
X164185241Y-90325363D01*
X163985363Y-90525241D01*
X163828320Y-90760273D01*
X163720147Y-91021426D01*
X163665000Y-91298665D01*
X114960000Y-91298665D01*
X114960000Y-86830000D01*
X144611928Y-86830000D01*
X144611928Y-88430000D01*
X144624188Y-88554482D01*
X144660498Y-88674180D01*
X144719463Y-88784494D01*
X144798815Y-88881185D01*
X144895506Y-88960537D01*
X145005820Y-89019502D01*
X145125518Y-89055812D01*
X145250000Y-89068072D01*
X146850000Y-89068072D01*
X146974482Y-89055812D01*
X147094180Y-89019502D01*
X147204494Y-88960537D01*
X147301185Y-88881185D01*
X147380537Y-88784494D01*
X147439502Y-88674180D01*
X147475812Y-88554482D01*
X147476643Y-88546039D01*
X147675241Y-88744637D01*
X147910273Y-88901680D01*
X148171426Y-89009853D01*
X148448665Y-89065000D01*
X148731335Y-89065000D01*
X149008574Y-89009853D01*
X149269727Y-88901680D01*
X149504759Y-88744637D01*
X149704637Y-88544759D01*
X149860000Y-88312241D01*
X150015363Y-88544759D01*
X150215241Y-88744637D01*
X150450273Y-88901680D01*
X150711426Y-89009853D01*
X150988665Y-89065000D01*
X151271335Y-89065000D01*
X151548574Y-89009853D01*
X151809727Y-88901680D01*
X152044759Y-88744637D01*
X152244637Y-88544759D01*
X152400000Y-88312241D01*
X152555363Y-88544759D01*
X152755241Y-88744637D01*
X152990273Y-88901680D01*
X153251426Y-89009853D01*
X153528665Y-89065000D01*
X153811335Y-89065000D01*
X154088574Y-89009853D01*
X154349727Y-88901680D01*
X154584759Y-88744637D01*
X154784637Y-88544759D01*
X154941680Y-88309727D01*
X155049853Y-88048574D01*
X155105000Y-87771335D01*
X155105000Y-87488665D01*
X155049853Y-87211426D01*
X154941680Y-86950273D01*
X154784637Y-86715241D01*
X154584759Y-86515363D01*
X154349727Y-86358320D01*
X154088574Y-86250147D01*
X153811335Y-86195000D01*
X153528665Y-86195000D01*
X153251426Y-86250147D01*
X152990273Y-86358320D01*
X152755241Y-86515363D01*
X152555363Y-86715241D01*
X152400000Y-86947759D01*
X152244637Y-86715241D01*
X152044759Y-86515363D01*
X151809727Y-86358320D01*
X151548574Y-86250147D01*
X151271335Y-86195000D01*
X150988665Y-86195000D01*
X150711426Y-86250147D01*
X150450273Y-86358320D01*
X150215241Y-86515363D01*
X150015363Y-86715241D01*
X149860000Y-86947759D01*
X149704637Y-86715241D01*
X149504759Y-86515363D01*
X149269727Y-86358320D01*
X149008574Y-86250147D01*
X148731335Y-86195000D01*
X148448665Y-86195000D01*
X148171426Y-86250147D01*
X147910273Y-86358320D01*
X147675241Y-86515363D01*
X147476643Y-86713961D01*
X147475812Y-86705518D01*
X147439502Y-86585820D01*
X147380537Y-86475506D01*
X147301185Y-86378815D01*
X147204494Y-86299463D01*
X147094180Y-86240498D01*
X146974482Y-86204188D01*
X146850000Y-86191928D01*
X145250000Y-86191928D01*
X145125518Y-86204188D01*
X145005820Y-86240498D01*
X144895506Y-86299463D01*
X144798815Y-86378815D01*
X144719463Y-86475506D01*
X144660498Y-86585820D01*
X144624188Y-86705518D01*
X144611928Y-86830000D01*
X114960000Y-86830000D01*
X114960000Y-82398816D01*
X125465000Y-82398816D01*
X125465000Y-82701184D01*
X125523989Y-82997743D01*
X125639701Y-83277095D01*
X125807688Y-83528505D01*
X126021495Y-83742312D01*
X126272905Y-83910299D01*
X126552257Y-84026011D01*
X126848816Y-84085000D01*
X127151184Y-84085000D01*
X127447743Y-84026011D01*
X127727095Y-83910299D01*
X127978505Y-83742312D01*
X128044944Y-83675873D01*
X128050498Y-83694180D01*
X128109463Y-83804494D01*
X128188815Y-83901185D01*
X128285506Y-83980537D01*
X128395820Y-84039502D01*
X128515518Y-84075812D01*
X128640000Y-84088072D01*
X130440000Y-84088072D01*
X130564482Y-84075812D01*
X130684180Y-84039502D01*
X130794494Y-83980537D01*
X130891185Y-83901185D01*
X130970537Y-83804494D01*
X131029502Y-83694180D01*
X131065812Y-83574482D01*
X131078072Y-83450000D01*
X131078072Y-81650000D01*
X131065812Y-81525518D01*
X131029502Y-81405820D01*
X130970537Y-81295506D01*
X130891185Y-81198815D01*
X130794494Y-81119463D01*
X130684180Y-81060498D01*
X130564482Y-81024188D01*
X130440000Y-81011928D01*
X128640000Y-81011928D01*
X128515518Y-81024188D01*
X128395820Y-81060498D01*
X128285506Y-81119463D01*
X128188815Y-81198815D01*
X128109463Y-81295506D01*
X128050498Y-81405820D01*
X128044944Y-81424127D01*
X127978505Y-81357688D01*
X127727095Y-81189701D01*
X127447743Y-81073989D01*
X127151184Y-81015000D01*
X126848816Y-81015000D01*
X126552257Y-81073989D01*
X126272905Y-81189701D01*
X126021495Y-81357688D01*
X125807688Y-81571495D01*
X125639701Y-81822905D01*
X125523989Y-82102257D01*
X125465000Y-82398816D01*
X114960000Y-82398816D01*
X114960000Y-80359040D01*
X144658091Y-80359040D01*
X144752930Y-80623881D01*
X144897615Y-80865131D01*
X145086586Y-81073519D01*
X145312580Y-81241037D01*
X145566913Y-81361246D01*
X145700961Y-81401904D01*
X145923000Y-81279915D01*
X145923000Y-80137000D01*
X144779376Y-80137000D01*
X144658091Y-80359040D01*
X114960000Y-80359040D01*
X114960000Y-79660960D01*
X144658091Y-79660960D01*
X144779376Y-79883000D01*
X145923000Y-79883000D01*
X145923000Y-78740085D01*
X146177000Y-78740085D01*
X146177000Y-79883000D01*
X146197000Y-79883000D01*
X146197000Y-80137000D01*
X146177000Y-80137000D01*
X146177000Y-81279915D01*
X146399039Y-81401904D01*
X146533087Y-81361246D01*
X146787420Y-81241037D01*
X147013414Y-81073519D01*
X147202385Y-80865131D01*
X147313933Y-80679135D01*
X147318320Y-80689727D01*
X147475363Y-80924759D01*
X147675241Y-81124637D01*
X147910273Y-81281680D01*
X148171426Y-81389853D01*
X148448665Y-81445000D01*
X148731335Y-81445000D01*
X149008574Y-81389853D01*
X149269727Y-81281680D01*
X149504759Y-81124637D01*
X149704637Y-80924759D01*
X149860000Y-80692241D01*
X150015363Y-80924759D01*
X150215241Y-81124637D01*
X150450273Y-81281680D01*
X150711426Y-81389853D01*
X150988665Y-81445000D01*
X151271335Y-81445000D01*
X151548574Y-81389853D01*
X151809727Y-81281680D01*
X152044759Y-81124637D01*
X152244637Y-80924759D01*
X152400000Y-80692241D01*
X152555363Y-80924759D01*
X152755241Y-81124637D01*
X152990273Y-81281680D01*
X153251426Y-81389853D01*
X153528665Y-81445000D01*
X153811335Y-81445000D01*
X154088574Y-81389853D01*
X154349727Y-81281680D01*
X154584759Y-81124637D01*
X154784637Y-80924759D01*
X154941680Y-80689727D01*
X155049853Y-80428574D01*
X155105000Y-80151335D01*
X155105000Y-79868665D01*
X155049853Y-79591426D01*
X154941680Y-79330273D01*
X154784637Y-79095241D01*
X154584759Y-78895363D01*
X154349727Y-78738320D01*
X154088574Y-78630147D01*
X153811335Y-78575000D01*
X153528665Y-78575000D01*
X153251426Y-78630147D01*
X152990273Y-78738320D01*
X152755241Y-78895363D01*
X152555363Y-79095241D01*
X152400000Y-79327759D01*
X152244637Y-79095241D01*
X152044759Y-78895363D01*
X151809727Y-78738320D01*
X151548574Y-78630147D01*
X151271335Y-78575000D01*
X150988665Y-78575000D01*
X150711426Y-78630147D01*
X150450273Y-78738320D01*
X150215241Y-78895363D01*
X150015363Y-79095241D01*
X149860000Y-79327759D01*
X149704637Y-79095241D01*
X149504759Y-78895363D01*
X149269727Y-78738320D01*
X149008574Y-78630147D01*
X148731335Y-78575000D01*
X148448665Y-78575000D01*
X148171426Y-78630147D01*
X147910273Y-78738320D01*
X147675241Y-78895363D01*
X147475363Y-79095241D01*
X147318320Y-79330273D01*
X147313933Y-79340865D01*
X147202385Y-79154869D01*
X147013414Y-78946481D01*
X146787420Y-78778963D01*
X146533087Y-78658754D01*
X146399039Y-78618096D01*
X146177000Y-78740085D01*
X145923000Y-78740085D01*
X145700961Y-78618096D01*
X145566913Y-78658754D01*
X145312580Y-78778963D01*
X145086586Y-78946481D01*
X144897615Y-79154869D01*
X144752930Y-79396119D01*
X144658091Y-79660960D01*
X114960000Y-79660960D01*
X114960000Y-75590000D01*
X173330001Y-75590000D01*
X173330000Y-126340000D01*
G37*
X173330000Y-126340000D02*
X114960000Y-126340000D01*
X114960000Y-113737122D01*
X123825000Y-113737122D01*
X123825000Y-114862878D01*
X124044625Y-115967004D01*
X124475433Y-117007067D01*
X125100870Y-117943100D01*
X125896900Y-118739130D01*
X126832933Y-119364567D01*
X127872996Y-119795375D01*
X128977122Y-120015000D01*
X130102878Y-120015000D01*
X131207004Y-119795375D01*
X132247067Y-119364567D01*
X133183100Y-118739130D01*
X133979130Y-117943100D01*
X134604567Y-117007067D01*
X135035375Y-115967004D01*
X135255000Y-114862878D01*
X135255000Y-113737122D01*
X138815000Y-113737122D01*
X138815000Y-114862878D01*
X139034625Y-115967004D01*
X139465433Y-117007067D01*
X140090870Y-117943100D01*
X140886900Y-118739130D01*
X141822933Y-119364567D01*
X142862996Y-119795375D01*
X143967122Y-120015000D01*
X145092878Y-120015000D01*
X146197004Y-119795375D01*
X147237067Y-119364567D01*
X148173100Y-118739130D01*
X148575034Y-118337196D01*
X155652409Y-118337196D01*
X156238124Y-119019416D01*
X157221704Y-119567045D01*
X158293223Y-119912265D01*
X159411501Y-120041808D01*
X160533565Y-119950697D01*
X161616294Y-119642433D01*
X162618079Y-119128863D01*
X162781876Y-119019416D01*
X163367591Y-118337196D01*
X159510000Y-114479605D01*
X155652409Y-118337196D01*
X148575034Y-118337196D01*
X148969130Y-117943100D01*
X149594567Y-117007067D01*
X150025375Y-115967004D01*
X150245000Y-114862878D01*
X150245000Y-114201501D01*
X153768192Y-114201501D01*
X153859303Y-115323565D01*
X154167567Y-116406294D01*
X154681137Y-117408079D01*
X154790584Y-117571876D01*
X155472804Y-118157591D01*
X159330395Y-114300000D01*
X159689605Y-114300000D01*
X163547196Y-118157591D01*
X164229416Y-117571876D01*
X164777045Y-116588296D01*
X165122265Y-115516777D01*
X165251808Y-114398499D01*
X165160697Y-113276435D01*
X164852433Y-112193706D01*
X164338863Y-111191921D01*
X164229416Y-111028124D01*
X163547196Y-110442409D01*
X159689605Y-114300000D01*
X159330395Y-114300000D01*
X155472804Y-110442409D01*
X154790584Y-111028124D01*
X154242955Y-112011704D01*
X153897735Y-113083223D01*
X153768192Y-114201501D01*
X150245000Y-114201501D01*
X150245000Y-113737122D01*
X150025375Y-112632996D01*
X149594567Y-111592933D01*
X148969130Y-110656900D01*
X148575034Y-110262804D01*
X155652409Y-110262804D01*
X159510000Y-114120395D01*
X163367591Y-110262804D01*
X162781876Y-109580584D01*
X161798296Y-109032955D01*
X160726777Y-108687735D01*
X159608499Y-108558192D01*
X158486435Y-108649303D01*
X157403706Y-108957567D01*
X156401921Y-109471137D01*
X156238124Y-109580584D01*
X155652409Y-110262804D01*
X148575034Y-110262804D01*
X148173100Y-109860870D01*
X147237067Y-109235433D01*
X146197004Y-108804625D01*
X145092878Y-108585000D01*
X143967122Y-108585000D01*
X142862996Y-108804625D01*
X141822933Y-109235433D01*
X140886900Y-109860870D01*
X140090870Y-110656900D01*
X139465433Y-111592933D01*
X139034625Y-112632996D01*
X138815000Y-113737122D01*
X135255000Y-113737122D01*
X135035375Y-112632996D01*
X134604567Y-111592933D01*
X133979130Y-110656900D01*
X133183100Y-109860870D01*
X132247067Y-109235433D01*
X131207004Y-108804625D01*
X130102878Y-108585000D01*
X128977122Y-108585000D01*
X127872996Y-108804625D01*
X126832933Y-109235433D01*
X125896900Y-109860870D01*
X125100870Y-110656900D01*
X124475433Y-111592933D01*
X124044625Y-112632996D01*
X123825000Y-113737122D01*
X114960000Y-113737122D01*
X114960000Y-96378665D01*
X125565000Y-96378665D01*
X125565000Y-96661335D01*
X125620147Y-96938574D01*
X125728320Y-97199727D01*
X125885363Y-97434759D01*
X126085241Y-97634637D01*
X126320273Y-97791680D01*
X126581426Y-97899853D01*
X126858665Y-97955000D01*
X127141335Y-97955000D01*
X127418574Y-97899853D01*
X127679727Y-97791680D01*
X127914759Y-97634637D01*
X128114637Y-97434759D01*
X128270000Y-97202241D01*
X128425363Y-97434759D01*
X128625241Y-97634637D01*
X128860273Y-97791680D01*
X129121426Y-97899853D01*
X129398665Y-97955000D01*
X129681335Y-97955000D01*
X129958574Y-97899853D01*
X130219727Y-97791680D01*
X130454759Y-97634637D01*
X130654637Y-97434759D01*
X130811680Y-97199727D01*
X130919853Y-96938574D01*
X130975000Y-96661335D01*
X130975000Y-96378665D01*
X130919853Y-96101426D01*
X130811680Y-95840273D01*
X130654637Y-95605241D01*
X130454759Y-95405363D01*
X130219727Y-95248320D01*
X129958574Y-95140147D01*
X129681335Y-95085000D01*
X129398665Y-95085000D01*
X129121426Y-95140147D01*
X128860273Y-95248320D01*
X128625241Y-95405363D01*
X128425363Y-95605241D01*
X128270000Y-95837759D01*
X128114637Y-95605241D01*
X127914759Y-95405363D01*
X127679727Y-95248320D01*
X127418574Y-95140147D01*
X127141335Y-95085000D01*
X126858665Y-95085000D01*
X126581426Y-95140147D01*
X126320273Y-95248320D01*
X126085241Y-95405363D01*
X125885363Y-95605241D01*
X125728320Y-95840273D01*
X125620147Y-96101426D01*
X125565000Y-96378665D01*
X114960000Y-96378665D01*
X114960000Y-91298665D01*
X163665000Y-91298665D01*
X163665000Y-91581335D01*
X163720147Y-91858574D01*
X163828320Y-92119727D01*
X163985363Y-92354759D01*
X164185241Y-92554637D01*
X164417759Y-92710000D01*
X164185241Y-92865363D01*
X163985363Y-93065241D01*
X163828320Y-93300273D01*
X163720147Y-93561426D01*
X163665000Y-93838665D01*
X163665000Y-94121335D01*
X163720147Y-94398574D01*
X163828320Y-94659727D01*
X163985363Y-94894759D01*
X164185241Y-95094637D01*
X164420273Y-95251680D01*
X164681426Y-95359853D01*
X164958665Y-95415000D01*
X165241335Y-95415000D01*
X165518574Y-95359853D01*
X165779727Y-95251680D01*
X166014759Y-95094637D01*
X166214637Y-94894759D01*
X166371680Y-94659727D01*
X166479853Y-94398574D01*
X166535000Y-94121335D01*
X166535000Y-93838665D01*
X166479853Y-93561426D01*
X166371680Y-93300273D01*
X166214637Y-93065241D01*
X166014759Y-92865363D01*
X165782241Y-92710000D01*
X166014759Y-92554637D01*
X166214637Y-92354759D01*
X166371680Y-92119727D01*
X166479853Y-91858574D01*
X166535000Y-91581335D01*
X166535000Y-91298665D01*
X166479853Y-91021426D01*
X166371680Y-90760273D01*
X166214637Y-90525241D01*
X166014759Y-90325363D01*
X165779727Y-90168320D01*
X165518574Y-90060147D01*
X165241335Y-90005000D01*
X164958665Y-90005000D01*
X164681426Y-90060147D01*
X164420273Y-90168320D01*
X164185241Y-90325363D01*
X163985363Y-90525241D01*
X163828320Y-90760273D01*
X163720147Y-91021426D01*
X163665000Y-91298665D01*
X114960000Y-91298665D01*
X114960000Y-86830000D01*
X144611928Y-86830000D01*
X144611928Y-88430000D01*
X144624188Y-88554482D01*
X144660498Y-88674180D01*
X144719463Y-88784494D01*
X144798815Y-88881185D01*
X144895506Y-88960537D01*
X145005820Y-89019502D01*
X145125518Y-89055812D01*
X145250000Y-89068072D01*
X146850000Y-89068072D01*
X146974482Y-89055812D01*
X147094180Y-89019502D01*
X147204494Y-88960537D01*
X147301185Y-88881185D01*
X147380537Y-88784494D01*
X147439502Y-88674180D01*
X147475812Y-88554482D01*
X147476643Y-88546039D01*
X147675241Y-88744637D01*
X147910273Y-88901680D01*
X148171426Y-89009853D01*
X148448665Y-89065000D01*
X148731335Y-89065000D01*
X149008574Y-89009853D01*
X149269727Y-88901680D01*
X149504759Y-88744637D01*
X149704637Y-88544759D01*
X149860000Y-88312241D01*
X150015363Y-88544759D01*
X150215241Y-88744637D01*
X150450273Y-88901680D01*
X150711426Y-89009853D01*
X150988665Y-89065000D01*
X151271335Y-89065000D01*
X151548574Y-89009853D01*
X151809727Y-88901680D01*
X152044759Y-88744637D01*
X152244637Y-88544759D01*
X152400000Y-88312241D01*
X152555363Y-88544759D01*
X152755241Y-88744637D01*
X152990273Y-88901680D01*
X153251426Y-89009853D01*
X153528665Y-89065000D01*
X153811335Y-89065000D01*
X154088574Y-89009853D01*
X154349727Y-88901680D01*
X154584759Y-88744637D01*
X154784637Y-88544759D01*
X154941680Y-88309727D01*
X155049853Y-88048574D01*
X155105000Y-87771335D01*
X155105000Y-87488665D01*
X155049853Y-87211426D01*
X154941680Y-86950273D01*
X154784637Y-86715241D01*
X154584759Y-86515363D01*
X154349727Y-86358320D01*
X154088574Y-86250147D01*
X153811335Y-86195000D01*
X153528665Y-86195000D01*
X153251426Y-86250147D01*
X152990273Y-86358320D01*
X152755241Y-86515363D01*
X152555363Y-86715241D01*
X152400000Y-86947759D01*
X152244637Y-86715241D01*
X152044759Y-86515363D01*
X151809727Y-86358320D01*
X151548574Y-86250147D01*
X151271335Y-86195000D01*
X150988665Y-86195000D01*
X150711426Y-86250147D01*
X150450273Y-86358320D01*
X150215241Y-86515363D01*
X150015363Y-86715241D01*
X149860000Y-86947759D01*
X149704637Y-86715241D01*
X149504759Y-86515363D01*
X149269727Y-86358320D01*
X149008574Y-86250147D01*
X148731335Y-86195000D01*
X148448665Y-86195000D01*
X148171426Y-86250147D01*
X147910273Y-86358320D01*
X147675241Y-86515363D01*
X147476643Y-86713961D01*
X147475812Y-86705518D01*
X147439502Y-86585820D01*
X147380537Y-86475506D01*
X147301185Y-86378815D01*
X147204494Y-86299463D01*
X147094180Y-86240498D01*
X146974482Y-86204188D01*
X146850000Y-86191928D01*
X145250000Y-86191928D01*
X145125518Y-86204188D01*
X145005820Y-86240498D01*
X144895506Y-86299463D01*
X144798815Y-86378815D01*
X144719463Y-86475506D01*
X144660498Y-86585820D01*
X144624188Y-86705518D01*
X144611928Y-86830000D01*
X114960000Y-86830000D01*
X114960000Y-82398816D01*
X125465000Y-82398816D01*
X125465000Y-82701184D01*
X125523989Y-82997743D01*
X125639701Y-83277095D01*
X125807688Y-83528505D01*
X126021495Y-83742312D01*
X126272905Y-83910299D01*
X126552257Y-84026011D01*
X126848816Y-84085000D01*
X127151184Y-84085000D01*
X127447743Y-84026011D01*
X127727095Y-83910299D01*
X127978505Y-83742312D01*
X128044944Y-83675873D01*
X128050498Y-83694180D01*
X128109463Y-83804494D01*
X128188815Y-83901185D01*
X128285506Y-83980537D01*
X128395820Y-84039502D01*
X128515518Y-84075812D01*
X128640000Y-84088072D01*
X130440000Y-84088072D01*
X130564482Y-84075812D01*
X130684180Y-84039502D01*
X130794494Y-83980537D01*
X130891185Y-83901185D01*
X130970537Y-83804494D01*
X131029502Y-83694180D01*
X131065812Y-83574482D01*
X131078072Y-83450000D01*
X131078072Y-81650000D01*
X131065812Y-81525518D01*
X131029502Y-81405820D01*
X130970537Y-81295506D01*
X130891185Y-81198815D01*
X130794494Y-81119463D01*
X130684180Y-81060498D01*
X130564482Y-81024188D01*
X130440000Y-81011928D01*
X128640000Y-81011928D01*
X128515518Y-81024188D01*
X128395820Y-81060498D01*
X128285506Y-81119463D01*
X128188815Y-81198815D01*
X128109463Y-81295506D01*
X128050498Y-81405820D01*
X128044944Y-81424127D01*
X127978505Y-81357688D01*
X127727095Y-81189701D01*
X127447743Y-81073989D01*
X127151184Y-81015000D01*
X126848816Y-81015000D01*
X126552257Y-81073989D01*
X126272905Y-81189701D01*
X126021495Y-81357688D01*
X125807688Y-81571495D01*
X125639701Y-81822905D01*
X125523989Y-82102257D01*
X125465000Y-82398816D01*
X114960000Y-82398816D01*
X114960000Y-80359040D01*
X144658091Y-80359040D01*
X144752930Y-80623881D01*
X144897615Y-80865131D01*
X145086586Y-81073519D01*
X145312580Y-81241037D01*
X145566913Y-81361246D01*
X145700961Y-81401904D01*
X145923000Y-81279915D01*
X145923000Y-80137000D01*
X144779376Y-80137000D01*
X144658091Y-80359040D01*
X114960000Y-80359040D01*
X114960000Y-79660960D01*
X144658091Y-79660960D01*
X144779376Y-79883000D01*
X145923000Y-79883000D01*
X145923000Y-78740085D01*
X146177000Y-78740085D01*
X146177000Y-79883000D01*
X146197000Y-79883000D01*
X146197000Y-80137000D01*
X146177000Y-80137000D01*
X146177000Y-81279915D01*
X146399039Y-81401904D01*
X146533087Y-81361246D01*
X146787420Y-81241037D01*
X147013414Y-81073519D01*
X147202385Y-80865131D01*
X147313933Y-80679135D01*
X147318320Y-80689727D01*
X147475363Y-80924759D01*
X147675241Y-81124637D01*
X147910273Y-81281680D01*
X148171426Y-81389853D01*
X148448665Y-81445000D01*
X148731335Y-81445000D01*
X149008574Y-81389853D01*
X149269727Y-81281680D01*
X149504759Y-81124637D01*
X149704637Y-80924759D01*
X149860000Y-80692241D01*
X150015363Y-80924759D01*
X150215241Y-81124637D01*
X150450273Y-81281680D01*
X150711426Y-81389853D01*
X150988665Y-81445000D01*
X151271335Y-81445000D01*
X151548574Y-81389853D01*
X151809727Y-81281680D01*
X152044759Y-81124637D01*
X152244637Y-80924759D01*
X152400000Y-80692241D01*
X152555363Y-80924759D01*
X152755241Y-81124637D01*
X152990273Y-81281680D01*
X153251426Y-81389853D01*
X153528665Y-81445000D01*
X153811335Y-81445000D01*
X154088574Y-81389853D01*
X154349727Y-81281680D01*
X154584759Y-81124637D01*
X154784637Y-80924759D01*
X154941680Y-80689727D01*
X155049853Y-80428574D01*
X155105000Y-80151335D01*
X155105000Y-79868665D01*
X155049853Y-79591426D01*
X154941680Y-79330273D01*
X154784637Y-79095241D01*
X154584759Y-78895363D01*
X154349727Y-78738320D01*
X154088574Y-78630147D01*
X153811335Y-78575000D01*
X153528665Y-78575000D01*
X153251426Y-78630147D01*
X152990273Y-78738320D01*
X152755241Y-78895363D01*
X152555363Y-79095241D01*
X152400000Y-79327759D01*
X152244637Y-79095241D01*
X152044759Y-78895363D01*
X151809727Y-78738320D01*
X151548574Y-78630147D01*
X151271335Y-78575000D01*
X150988665Y-78575000D01*
X150711426Y-78630147D01*
X150450273Y-78738320D01*
X150215241Y-78895363D01*
X150015363Y-79095241D01*
X149860000Y-79327759D01*
X149704637Y-79095241D01*
X149504759Y-78895363D01*
X149269727Y-78738320D01*
X149008574Y-78630147D01*
X148731335Y-78575000D01*
X148448665Y-78575000D01*
X148171426Y-78630147D01*
X147910273Y-78738320D01*
X147675241Y-78895363D01*
X147475363Y-79095241D01*
X147318320Y-79330273D01*
X147313933Y-79340865D01*
X147202385Y-79154869D01*
X147013414Y-78946481D01*
X146787420Y-78778963D01*
X146533087Y-78658754D01*
X146399039Y-78618096D01*
X146177000Y-78740085D01*
X145923000Y-78740085D01*
X145700961Y-78618096D01*
X145566913Y-78658754D01*
X145312580Y-78778963D01*
X145086586Y-78946481D01*
X144897615Y-79154869D01*
X144752930Y-79396119D01*
X144658091Y-79660960D01*
X114960000Y-79660960D01*
X114960000Y-75590000D01*
X173330001Y-75590000D01*
X173330000Y-126340000D01*
%TD*%
M02*
