%TF.GenerationSoftware,KiCad,Pcbnew,5.1.6-c6e7f7d~87~ubuntu20.04.1*%
%TF.CreationDate,2020-08-02T16:50:31-04:00*%
%TF.ProjectId,GaitPCB2,47616974-5043-4423-922e-6b696361645f,rev?*%
%TF.SameCoordinates,Original*%
%TF.FileFunction,Copper,L2,Bot*%
%TF.FilePolarity,Positive*%
%FSLAX46Y46*%
G04 Gerber Fmt 4.6, Leading zero omitted, Abs format (unit mm)*
G04 Created by KiCad (PCBNEW 5.1.6-c6e7f7d~87~ubuntu20.04.1) date 2020-08-02 16:50:31*
%MOMM*%
%LPD*%
G01*
G04 APERTURE LIST*
%TA.AperFunction,ComponentPad*%
%ADD10O,1.700000X1.700000*%
%TD*%
%TA.AperFunction,ComponentPad*%
%ADD11R,1.700000X1.700000*%
%TD*%
%TA.AperFunction,ComponentPad*%
%ADD12R,1.800000X1.800000*%
%TD*%
%TA.AperFunction,ComponentPad*%
%ADD13C,1.800000*%
%TD*%
%TA.AperFunction,ComponentPad*%
%ADD14C,1.400000*%
%TD*%
%TA.AperFunction,ComponentPad*%
%ADD15O,1.400000X1.400000*%
%TD*%
%TA.AperFunction,ComponentPad*%
%ADD16R,1.500000X1.500000*%
%TD*%
%TA.AperFunction,ComponentPad*%
%ADD17O,1.500000X1.500000*%
%TD*%
%TA.AperFunction,Conductor*%
%ADD18C,0.600000*%
%TD*%
%TA.AperFunction,Conductor*%
%ADD19C,0.350000*%
%TD*%
%TA.AperFunction,NonConductor*%
%ADD20C,0.254000*%
%TD*%
G04 APERTURE END LIST*
D10*
%TO.P,J3,15*%
%TO.N,Net-(J3-Pad15)*%
X117450000Y-43840000D03*
%TO.P,J3,14*%
%TO.N,Net-(J3-Pad14)*%
X117450000Y-46380000D03*
%TO.P,J3,13*%
%TO.N,Net-(J3-Pad13)*%
X117450000Y-48920000D03*
%TO.P,J3,12*%
%TO.N,Net-(J3-Pad12)*%
X117450000Y-51460000D03*
%TO.P,J3,11*%
%TO.N,Net-(J3-Pad11)*%
X117450000Y-54000000D03*
%TO.P,J3,10*%
%TO.N,Net-(J3-Pad10)*%
X117450000Y-56540000D03*
%TO.P,J3,9*%
%TO.N,Net-(J3-Pad9)*%
X117450000Y-59080000D03*
%TO.P,J3,8*%
%TO.N,Net-(J3-Pad8)*%
X117450000Y-61620000D03*
%TO.P,J3,7*%
%TO.N,Net-(J3-Pad7)*%
X117450000Y-64160000D03*
%TO.P,J3,6*%
%TO.N,Net-(J3-Pad6)*%
X117450000Y-66700000D03*
%TO.P,J3,5*%
%TO.N,Net-(J3-Pad5)*%
X117450000Y-69240000D03*
%TO.P,J3,4*%
%TO.N,Net-(J3-Pad4)*%
X117450000Y-71780000D03*
%TO.P,J3,3*%
%TO.N,Net-(J3-Pad3)*%
X117450000Y-74320000D03*
%TO.P,J3,2*%
%TO.N,GND*%
X117450000Y-76860000D03*
D11*
%TO.P,J3,1*%
%TO.N,VDD*%
X117450000Y-79400000D03*
%TD*%
%TO.P,J2,1*%
%TO.N,+3V3*%
X142925000Y-79375000D03*
D10*
%TO.P,J2,2*%
%TO.N,GND*%
X142925000Y-76835000D03*
%TO.P,J2,3*%
%TO.N,Net-(J2-Pad3)*%
X142925000Y-74295000D03*
%TO.P,J2,4*%
%TO.N,Net-(J2-Pad4)*%
X142925000Y-71755000D03*
%TO.P,J2,5*%
%TO.N,Net-(J2-Pad5)*%
X142925000Y-69215000D03*
%TO.P,J2,6*%
%TO.N,Net-(J2-Pad6)*%
X142925000Y-66675000D03*
%TO.P,J2,7*%
%TO.N,Net-(J2-Pad7)*%
X142925000Y-64135000D03*
%TO.P,J2,8*%
%TO.N,Net-(J2-Pad8)*%
X142925000Y-61595000D03*
%TO.P,J2,9*%
%TO.N,Net-(J2-Pad9)*%
X142925000Y-59055000D03*
%TO.P,J2,10*%
%TO.N,Net-(J2-Pad10)*%
X142925000Y-56515000D03*
%TO.P,J2,11*%
%TO.N,Net-(J2-Pad11)*%
X142925000Y-53975000D03*
%TO.P,J2,12*%
%TO.N,Net-(J2-Pad12)*%
X142925000Y-51435000D03*
%TO.P,J2,13*%
%TO.N,Net-(J2-Pad13)*%
X142925000Y-48895000D03*
%TO.P,J2,14*%
%TO.N,Net-(J2-Pad14)*%
X142925000Y-46355000D03*
%TO.P,J2,15*%
%TO.N,Net-(J2-Pad15)*%
X142925000Y-43815000D03*
%TD*%
D12*
%TO.P,D1,1*%
%TO.N,GND*%
X165350000Y-62675000D03*
D13*
%TO.P,D1,2*%
%TO.N,Net-(D1-Pad2)*%
X162810000Y-62675000D03*
%TD*%
D12*
%TO.P,D2,1*%
%TO.N,GND*%
X165275000Y-71350000D03*
D13*
%TO.P,D2,2*%
%TO.N,Net-(D2-Pad2)*%
X162735000Y-71350000D03*
%TD*%
D12*
%TO.P,D3,1*%
%TO.N,GND*%
X165350000Y-82375000D03*
D13*
%TO.P,D3,2*%
%TO.N,Net-(D3-Pad2)*%
X162810000Y-82375000D03*
%TD*%
D14*
%TO.P,R1,1*%
%TO.N,Net-(D1-Pad2)*%
X158275000Y-61100000D03*
D15*
%TO.P,R1,2*%
%TO.N,Net-(J2-Pad5)*%
X150655000Y-61100000D03*
%TD*%
%TO.P,R2,2*%
%TO.N,Net-(J2-Pad4)*%
X151105000Y-71200000D03*
D14*
%TO.P,R2,1*%
%TO.N,Net-(D2-Pad2)*%
X158725000Y-71200000D03*
%TD*%
%TO.P,R3,1*%
%TO.N,Net-(D3-Pad2)*%
X159400000Y-82575000D03*
D15*
%TO.P,R3,2*%
%TO.N,Net-(J2-Pad3)*%
X151780000Y-82575000D03*
%TD*%
D11*
%TO.P,J4,1*%
%TO.N,+3V3*%
X166250000Y-39775000D03*
D10*
%TO.P,J4,2*%
%TO.N,GND*%
X163710000Y-39775000D03*
%TO.P,J4,3*%
%TO.N,Net-(J2-Pad14)*%
X161170000Y-39775000D03*
%TO.P,J4,4*%
%TO.N,Net-(J2-Pad11)*%
X158630000Y-39775000D03*
%TO.P,J4,5*%
%TO.N,Net-(J4-Pad5)*%
X156090000Y-39775000D03*
%TO.P,J4,6*%
%TO.N,Net-(J4-Pad6)*%
X153550000Y-39775000D03*
%TO.P,J4,7*%
%TO.N,Net-(J4-Pad7)*%
X151010000Y-39775000D03*
%TO.P,J4,8*%
%TO.N,Net-(J2-Pad15)*%
X148470000Y-39775000D03*
%TD*%
D16*
%TO.P,J1,1*%
%TO.N,VDD*%
X112600000Y-51875000D03*
D17*
%TO.P,J1,2*%
%TO.N,GND*%
X110000000Y-51900000D03*
%TD*%
D18*
%TO.N,Net-(D1-Pad2)*%
X162810000Y-62675000D02*
X159850000Y-62675000D01*
X158275000Y-61100000D02*
X159850000Y-62675000D01*
%TO.N,Net-(D2-Pad2)*%
X162585000Y-71200000D02*
X162735000Y-71350000D01*
X158725000Y-71200000D02*
X162585000Y-71200000D01*
%TO.N,Net-(D3-Pad2)*%
X159600000Y-82375000D02*
X159400000Y-82575000D01*
X162810000Y-82375000D02*
X159600000Y-82375000D01*
%TO.N,VDD*%
X112600000Y-51875000D02*
X112600000Y-41850000D01*
X112600000Y-41850000D02*
X114200000Y-40250000D01*
X114200000Y-40250000D02*
X120150000Y-40250000D01*
X120150000Y-40250000D02*
X122925000Y-43025000D01*
X122925000Y-43025000D02*
X122925000Y-76850000D01*
X120375000Y-79400000D02*
X117450000Y-79400000D01*
X122925000Y-76850000D02*
X120375000Y-79400000D01*
%TO.N,GND*%
X165275000Y-62750000D02*
X165350000Y-62675000D01*
X165275000Y-71350000D02*
X165275000Y-62750000D01*
X163710000Y-45660000D02*
X165350000Y-47300000D01*
X163710000Y-39775000D02*
X163710000Y-45660000D01*
X165350000Y-47300000D02*
X165350000Y-62675000D01*
X165275000Y-82300000D02*
X165350000Y-82375000D01*
X165275000Y-71350000D02*
X165275000Y-82300000D01*
X165350000Y-86350000D02*
X163975000Y-87725000D01*
X165350000Y-82375000D02*
X165350000Y-86350000D01*
X150200000Y-87725000D02*
X147500000Y-85025000D01*
X163975000Y-87725000D02*
X150200000Y-87725000D01*
X144127081Y-76835000D02*
X142925000Y-76835000D01*
X147500000Y-80207919D02*
X144127081Y-76835000D01*
X147500000Y-85025000D02*
X147500000Y-80207919D01*
X110000000Y-51900000D02*
X110000000Y-73425000D01*
X113435000Y-76860000D02*
X117450000Y-76860000D01*
X110000000Y-73425000D02*
X113435000Y-76860000D01*
%TO.N,Net-(J2-Pad3)*%
X151780000Y-80580000D02*
X145495000Y-74295000D01*
X151780000Y-82575000D02*
X151780000Y-80580000D01*
X142925000Y-74295000D02*
X145495000Y-74295000D01*
%TO.N,Net-(J2-Pad5)*%
X148085000Y-69215000D02*
X150655000Y-66645000D01*
X142925000Y-69215000D02*
X148085000Y-69215000D01*
X150655000Y-66645000D02*
X150655000Y-61100000D01*
%TO.N,Net-(J2-Pad11)*%
X139650000Y-53975000D02*
X138125000Y-52450000D01*
X142925000Y-53975000D02*
X139650000Y-53975000D01*
X141375000Y-36750000D02*
X157675000Y-36750000D01*
X138125000Y-40000000D02*
X141375000Y-36750000D01*
X138125000Y-52450000D02*
X138125000Y-40000000D01*
X158630000Y-37705000D02*
X157675000Y-36750000D01*
X158630000Y-39775000D02*
X158630000Y-37705000D01*
D19*
%TO.N,Net-(J2-Pad14)*%
X161170000Y-39775000D02*
X161170000Y-42955000D01*
X157770000Y-46355000D02*
X142925000Y-46355000D01*
X161170000Y-42955000D02*
X157770000Y-46355000D01*
D18*
X161170000Y-39775000D02*
X161170000Y-43205000D01*
X161170000Y-43205000D02*
X157950000Y-46425000D01*
X142995000Y-46425000D02*
X142925000Y-46355000D01*
X157950000Y-46425000D02*
X142995000Y-46425000D01*
%TO.N,Net-(J2-Pad15)*%
X142925000Y-43815000D02*
X147235000Y-43815000D01*
X147235000Y-43815000D02*
X148362500Y-42687500D01*
D19*
X148470000Y-42580000D02*
X148362500Y-42687500D01*
D18*
X148470000Y-39775000D02*
X148470000Y-42580000D01*
%TO.N,Net-(J2-Pad4)*%
X151105000Y-71200000D02*
X148750000Y-71200000D01*
X148750000Y-71200000D02*
X148100000Y-71850000D01*
X143020000Y-71850000D02*
X142925000Y-71755000D01*
X148100000Y-71850000D02*
X143020000Y-71850000D01*
%TO.N,+3V3*%
X142925000Y-79375000D02*
X138425000Y-79375000D01*
X165125000Y-35250000D02*
X138825000Y-35250000D01*
X134825000Y-39250000D02*
X134825000Y-75775000D01*
X166250000Y-36375000D02*
X165125000Y-35250000D01*
D19*
X134825000Y-75775000D02*
X134937500Y-75887500D01*
D18*
X138425000Y-79375000D02*
X134937500Y-75887500D01*
X166250000Y-39775000D02*
X166250000Y-36375000D01*
X138825000Y-35250000D02*
X134825000Y-39250000D01*
%TD*%
D20*
G36*
X171590000Y-91590000D02*
G01*
X78910000Y-91590000D01*
X78910000Y-51763589D01*
X108615000Y-51763589D01*
X108615000Y-52036411D01*
X108668225Y-52303989D01*
X108772629Y-52556043D01*
X108924201Y-52782886D01*
X109065000Y-52923685D01*
X109065001Y-73379058D01*
X109060476Y-73425000D01*
X109078529Y-73608291D01*
X109085314Y-73630657D01*
X109131994Y-73784540D01*
X109218815Y-73946972D01*
X109335657Y-74089344D01*
X109371336Y-74118625D01*
X112741370Y-77488659D01*
X112770656Y-77524344D01*
X112913028Y-77641186D01*
X113018880Y-77697765D01*
X113075459Y-77728007D01*
X113251708Y-77781472D01*
X113435000Y-77799524D01*
X113480935Y-77795000D01*
X116288753Y-77795000D01*
X116296525Y-77806632D01*
X116428380Y-77938487D01*
X116355820Y-77960498D01*
X116245506Y-78019463D01*
X116148815Y-78098815D01*
X116069463Y-78195506D01*
X116010498Y-78305820D01*
X115974188Y-78425518D01*
X115961928Y-78550000D01*
X115961928Y-80250000D01*
X115974188Y-80374482D01*
X116010498Y-80494180D01*
X116069463Y-80604494D01*
X116148815Y-80701185D01*
X116245506Y-80780537D01*
X116355820Y-80839502D01*
X116475518Y-80875812D01*
X116600000Y-80888072D01*
X118300000Y-80888072D01*
X118424482Y-80875812D01*
X118544180Y-80839502D01*
X118654494Y-80780537D01*
X118751185Y-80701185D01*
X118830537Y-80604494D01*
X118889502Y-80494180D01*
X118925812Y-80374482D01*
X118929701Y-80335000D01*
X120329068Y-80335000D01*
X120375000Y-80339524D01*
X120420932Y-80335000D01*
X120558292Y-80321471D01*
X120734540Y-80268007D01*
X120896972Y-80181186D01*
X121039344Y-80064344D01*
X121068630Y-80028659D01*
X123553659Y-77543630D01*
X123589344Y-77514344D01*
X123706186Y-77371972D01*
X123787662Y-77219540D01*
X123793007Y-77209541D01*
X123846472Y-77033292D01*
X123864524Y-76850000D01*
X123860000Y-76804065D01*
X123860000Y-43070935D01*
X123864524Y-43025000D01*
X123846472Y-42841708D01*
X123793007Y-42665459D01*
X123726298Y-42540656D01*
X123706186Y-42503028D01*
X123589344Y-42360656D01*
X123553660Y-42331371D01*
X120843630Y-39621341D01*
X120814344Y-39585656D01*
X120671972Y-39468814D01*
X120509540Y-39381993D01*
X120333292Y-39328529D01*
X120195932Y-39315000D01*
X120150000Y-39310476D01*
X120104068Y-39315000D01*
X114245935Y-39315000D01*
X114200000Y-39310476D01*
X114016708Y-39328528D01*
X113840459Y-39381993D01*
X113783880Y-39412235D01*
X113678028Y-39468814D01*
X113535656Y-39585656D01*
X113506370Y-39621341D01*
X111971336Y-41156375D01*
X111935657Y-41185656D01*
X111818815Y-41328028D01*
X111731994Y-41490460D01*
X111678529Y-41666709D01*
X111660476Y-41850000D01*
X111665001Y-41895942D01*
X111665000Y-50517546D01*
X111605820Y-50535498D01*
X111495506Y-50594463D01*
X111398815Y-50673815D01*
X111319463Y-50770506D01*
X111260498Y-50880820D01*
X111224188Y-51000518D01*
X111211928Y-51125000D01*
X111211928Y-51220845D01*
X111075799Y-51017114D01*
X110882886Y-50824201D01*
X110656043Y-50672629D01*
X110403989Y-50568225D01*
X110136411Y-50515000D01*
X109863589Y-50515000D01*
X109596011Y-50568225D01*
X109343957Y-50672629D01*
X109117114Y-50824201D01*
X108924201Y-51017114D01*
X108772629Y-51243957D01*
X108668225Y-51496011D01*
X108615000Y-51763589D01*
X78910000Y-51763589D01*
X78910000Y-39250000D01*
X133885476Y-39250000D01*
X133890000Y-39295932D01*
X133890001Y-75820932D01*
X133903530Y-75958292D01*
X133956994Y-76134540D01*
X134043815Y-76296972D01*
X134160657Y-76439344D01*
X134222448Y-76490055D01*
X134243877Y-76516166D01*
X137731370Y-80003659D01*
X137760656Y-80039344D01*
X137903028Y-80156186D01*
X138065460Y-80243007D01*
X138137828Y-80264959D01*
X138241708Y-80296472D01*
X138425000Y-80314524D01*
X138470935Y-80310000D01*
X141445299Y-80310000D01*
X141449188Y-80349482D01*
X141485498Y-80469180D01*
X141544463Y-80579494D01*
X141623815Y-80676185D01*
X141720506Y-80755537D01*
X141830820Y-80814502D01*
X141950518Y-80850812D01*
X142075000Y-80863072D01*
X143775000Y-80863072D01*
X143899482Y-80850812D01*
X144019180Y-80814502D01*
X144129494Y-80755537D01*
X144226185Y-80676185D01*
X144305537Y-80579494D01*
X144364502Y-80469180D01*
X144400812Y-80349482D01*
X144413072Y-80225000D01*
X144413072Y-78525000D01*
X144404144Y-78434352D01*
X146565001Y-80595209D01*
X146565000Y-84979068D01*
X146560476Y-85025000D01*
X146565000Y-85070931D01*
X146578529Y-85208291D01*
X146631993Y-85384539D01*
X146718814Y-85546971D01*
X146835656Y-85689344D01*
X146871341Y-85718630D01*
X149506370Y-88353659D01*
X149535656Y-88389344D01*
X149678028Y-88506186D01*
X149783880Y-88562765D01*
X149840459Y-88593007D01*
X150016708Y-88646472D01*
X150200000Y-88664524D01*
X150245935Y-88660000D01*
X163929068Y-88660000D01*
X163975000Y-88664524D01*
X164020932Y-88660000D01*
X164158292Y-88646471D01*
X164334540Y-88593007D01*
X164496972Y-88506186D01*
X164639344Y-88389344D01*
X164668630Y-88353659D01*
X165978659Y-87043630D01*
X166014344Y-87014344D01*
X166131186Y-86871972D01*
X166187765Y-86766120D01*
X166218007Y-86709541D01*
X166271472Y-86533292D01*
X166289524Y-86350000D01*
X166285000Y-86304065D01*
X166285000Y-83909625D01*
X166374482Y-83900812D01*
X166494180Y-83864502D01*
X166604494Y-83805537D01*
X166701185Y-83726185D01*
X166780537Y-83629494D01*
X166839502Y-83519180D01*
X166875812Y-83399482D01*
X166888072Y-83275000D01*
X166888072Y-81475000D01*
X166875812Y-81350518D01*
X166839502Y-81230820D01*
X166780537Y-81120506D01*
X166701185Y-81023815D01*
X166604494Y-80944463D01*
X166494180Y-80885498D01*
X166374482Y-80849188D01*
X166250000Y-80836928D01*
X166210000Y-80836928D01*
X166210000Y-72884625D01*
X166299482Y-72875812D01*
X166419180Y-72839502D01*
X166529494Y-72780537D01*
X166626185Y-72701185D01*
X166705537Y-72604494D01*
X166764502Y-72494180D01*
X166800812Y-72374482D01*
X166813072Y-72250000D01*
X166813072Y-70450000D01*
X166800812Y-70325518D01*
X166764502Y-70205820D01*
X166705537Y-70095506D01*
X166626185Y-69998815D01*
X166529494Y-69919463D01*
X166419180Y-69860498D01*
X166299482Y-69824188D01*
X166210000Y-69815375D01*
X166210000Y-64213072D01*
X166250000Y-64213072D01*
X166374482Y-64200812D01*
X166494180Y-64164502D01*
X166604494Y-64105537D01*
X166701185Y-64026185D01*
X166780537Y-63929494D01*
X166839502Y-63819180D01*
X166875812Y-63699482D01*
X166888072Y-63575000D01*
X166888072Y-61775000D01*
X166875812Y-61650518D01*
X166839502Y-61530820D01*
X166780537Y-61420506D01*
X166701185Y-61323815D01*
X166604494Y-61244463D01*
X166494180Y-61185498D01*
X166374482Y-61149188D01*
X166285000Y-61140375D01*
X166285000Y-47345931D01*
X166289524Y-47299999D01*
X166271471Y-47116707D01*
X166219982Y-46946972D01*
X166218007Y-46940460D01*
X166131186Y-46778028D01*
X166014344Y-46635656D01*
X165978665Y-46606376D01*
X164645000Y-45272711D01*
X164645000Y-40936247D01*
X164656632Y-40928475D01*
X164788487Y-40796620D01*
X164810498Y-40869180D01*
X164869463Y-40979494D01*
X164948815Y-41076185D01*
X165045506Y-41155537D01*
X165155820Y-41214502D01*
X165275518Y-41250812D01*
X165400000Y-41263072D01*
X167100000Y-41263072D01*
X167224482Y-41250812D01*
X167344180Y-41214502D01*
X167454494Y-41155537D01*
X167551185Y-41076185D01*
X167630537Y-40979494D01*
X167689502Y-40869180D01*
X167725812Y-40749482D01*
X167738072Y-40625000D01*
X167738072Y-38925000D01*
X167725812Y-38800518D01*
X167689502Y-38680820D01*
X167630537Y-38570506D01*
X167551185Y-38473815D01*
X167454494Y-38394463D01*
X167344180Y-38335498D01*
X167224482Y-38299188D01*
X167185000Y-38295299D01*
X167185000Y-36420931D01*
X167189524Y-36374999D01*
X167171471Y-36191707D01*
X167139301Y-36085657D01*
X167118007Y-36015460D01*
X167031186Y-35853028D01*
X166914344Y-35710656D01*
X166878664Y-35681374D01*
X165818630Y-34621341D01*
X165789344Y-34585656D01*
X165646972Y-34468814D01*
X165484540Y-34381993D01*
X165308292Y-34328529D01*
X165170932Y-34315000D01*
X165125000Y-34310476D01*
X165079068Y-34315000D01*
X138870931Y-34315000D01*
X138824999Y-34310476D01*
X138641707Y-34328529D01*
X138588243Y-34344747D01*
X138465460Y-34381993D01*
X138303028Y-34468814D01*
X138160656Y-34585656D01*
X138131374Y-34621336D01*
X134196341Y-38556370D01*
X134160656Y-38585656D01*
X134043814Y-38728029D01*
X133956993Y-38890461D01*
X133916777Y-39023037D01*
X133903529Y-39066709D01*
X133885476Y-39250000D01*
X78910000Y-39250000D01*
X78910000Y-33660000D01*
X171590001Y-33660000D01*
X171590000Y-91590000D01*
G37*
X171590000Y-91590000D02*
X78910000Y-91590000D01*
X78910000Y-51763589D01*
X108615000Y-51763589D01*
X108615000Y-52036411D01*
X108668225Y-52303989D01*
X108772629Y-52556043D01*
X108924201Y-52782886D01*
X109065000Y-52923685D01*
X109065001Y-73379058D01*
X109060476Y-73425000D01*
X109078529Y-73608291D01*
X109085314Y-73630657D01*
X109131994Y-73784540D01*
X109218815Y-73946972D01*
X109335657Y-74089344D01*
X109371336Y-74118625D01*
X112741370Y-77488659D01*
X112770656Y-77524344D01*
X112913028Y-77641186D01*
X113018880Y-77697765D01*
X113075459Y-77728007D01*
X113251708Y-77781472D01*
X113435000Y-77799524D01*
X113480935Y-77795000D01*
X116288753Y-77795000D01*
X116296525Y-77806632D01*
X116428380Y-77938487D01*
X116355820Y-77960498D01*
X116245506Y-78019463D01*
X116148815Y-78098815D01*
X116069463Y-78195506D01*
X116010498Y-78305820D01*
X115974188Y-78425518D01*
X115961928Y-78550000D01*
X115961928Y-80250000D01*
X115974188Y-80374482D01*
X116010498Y-80494180D01*
X116069463Y-80604494D01*
X116148815Y-80701185D01*
X116245506Y-80780537D01*
X116355820Y-80839502D01*
X116475518Y-80875812D01*
X116600000Y-80888072D01*
X118300000Y-80888072D01*
X118424482Y-80875812D01*
X118544180Y-80839502D01*
X118654494Y-80780537D01*
X118751185Y-80701185D01*
X118830537Y-80604494D01*
X118889502Y-80494180D01*
X118925812Y-80374482D01*
X118929701Y-80335000D01*
X120329068Y-80335000D01*
X120375000Y-80339524D01*
X120420932Y-80335000D01*
X120558292Y-80321471D01*
X120734540Y-80268007D01*
X120896972Y-80181186D01*
X121039344Y-80064344D01*
X121068630Y-80028659D01*
X123553659Y-77543630D01*
X123589344Y-77514344D01*
X123706186Y-77371972D01*
X123787662Y-77219540D01*
X123793007Y-77209541D01*
X123846472Y-77033292D01*
X123864524Y-76850000D01*
X123860000Y-76804065D01*
X123860000Y-43070935D01*
X123864524Y-43025000D01*
X123846472Y-42841708D01*
X123793007Y-42665459D01*
X123726298Y-42540656D01*
X123706186Y-42503028D01*
X123589344Y-42360656D01*
X123553660Y-42331371D01*
X120843630Y-39621341D01*
X120814344Y-39585656D01*
X120671972Y-39468814D01*
X120509540Y-39381993D01*
X120333292Y-39328529D01*
X120195932Y-39315000D01*
X120150000Y-39310476D01*
X120104068Y-39315000D01*
X114245935Y-39315000D01*
X114200000Y-39310476D01*
X114016708Y-39328528D01*
X113840459Y-39381993D01*
X113783880Y-39412235D01*
X113678028Y-39468814D01*
X113535656Y-39585656D01*
X113506370Y-39621341D01*
X111971336Y-41156375D01*
X111935657Y-41185656D01*
X111818815Y-41328028D01*
X111731994Y-41490460D01*
X111678529Y-41666709D01*
X111660476Y-41850000D01*
X111665001Y-41895942D01*
X111665000Y-50517546D01*
X111605820Y-50535498D01*
X111495506Y-50594463D01*
X111398815Y-50673815D01*
X111319463Y-50770506D01*
X111260498Y-50880820D01*
X111224188Y-51000518D01*
X111211928Y-51125000D01*
X111211928Y-51220845D01*
X111075799Y-51017114D01*
X110882886Y-50824201D01*
X110656043Y-50672629D01*
X110403989Y-50568225D01*
X110136411Y-50515000D01*
X109863589Y-50515000D01*
X109596011Y-50568225D01*
X109343957Y-50672629D01*
X109117114Y-50824201D01*
X108924201Y-51017114D01*
X108772629Y-51243957D01*
X108668225Y-51496011D01*
X108615000Y-51763589D01*
X78910000Y-51763589D01*
X78910000Y-39250000D01*
X133885476Y-39250000D01*
X133890000Y-39295932D01*
X133890001Y-75820932D01*
X133903530Y-75958292D01*
X133956994Y-76134540D01*
X134043815Y-76296972D01*
X134160657Y-76439344D01*
X134222448Y-76490055D01*
X134243877Y-76516166D01*
X137731370Y-80003659D01*
X137760656Y-80039344D01*
X137903028Y-80156186D01*
X138065460Y-80243007D01*
X138137828Y-80264959D01*
X138241708Y-80296472D01*
X138425000Y-80314524D01*
X138470935Y-80310000D01*
X141445299Y-80310000D01*
X141449188Y-80349482D01*
X141485498Y-80469180D01*
X141544463Y-80579494D01*
X141623815Y-80676185D01*
X141720506Y-80755537D01*
X141830820Y-80814502D01*
X141950518Y-80850812D01*
X142075000Y-80863072D01*
X143775000Y-80863072D01*
X143899482Y-80850812D01*
X144019180Y-80814502D01*
X144129494Y-80755537D01*
X144226185Y-80676185D01*
X144305537Y-80579494D01*
X144364502Y-80469180D01*
X144400812Y-80349482D01*
X144413072Y-80225000D01*
X144413072Y-78525000D01*
X144404144Y-78434352D01*
X146565001Y-80595209D01*
X146565000Y-84979068D01*
X146560476Y-85025000D01*
X146565000Y-85070931D01*
X146578529Y-85208291D01*
X146631993Y-85384539D01*
X146718814Y-85546971D01*
X146835656Y-85689344D01*
X146871341Y-85718630D01*
X149506370Y-88353659D01*
X149535656Y-88389344D01*
X149678028Y-88506186D01*
X149783880Y-88562765D01*
X149840459Y-88593007D01*
X150016708Y-88646472D01*
X150200000Y-88664524D01*
X150245935Y-88660000D01*
X163929068Y-88660000D01*
X163975000Y-88664524D01*
X164020932Y-88660000D01*
X164158292Y-88646471D01*
X164334540Y-88593007D01*
X164496972Y-88506186D01*
X164639344Y-88389344D01*
X164668630Y-88353659D01*
X165978659Y-87043630D01*
X166014344Y-87014344D01*
X166131186Y-86871972D01*
X166187765Y-86766120D01*
X166218007Y-86709541D01*
X166271472Y-86533292D01*
X166289524Y-86350000D01*
X166285000Y-86304065D01*
X166285000Y-83909625D01*
X166374482Y-83900812D01*
X166494180Y-83864502D01*
X166604494Y-83805537D01*
X166701185Y-83726185D01*
X166780537Y-83629494D01*
X166839502Y-83519180D01*
X166875812Y-83399482D01*
X166888072Y-83275000D01*
X166888072Y-81475000D01*
X166875812Y-81350518D01*
X166839502Y-81230820D01*
X166780537Y-81120506D01*
X166701185Y-81023815D01*
X166604494Y-80944463D01*
X166494180Y-80885498D01*
X166374482Y-80849188D01*
X166250000Y-80836928D01*
X166210000Y-80836928D01*
X166210000Y-72884625D01*
X166299482Y-72875812D01*
X166419180Y-72839502D01*
X166529494Y-72780537D01*
X166626185Y-72701185D01*
X166705537Y-72604494D01*
X166764502Y-72494180D01*
X166800812Y-72374482D01*
X166813072Y-72250000D01*
X166813072Y-70450000D01*
X166800812Y-70325518D01*
X166764502Y-70205820D01*
X166705537Y-70095506D01*
X166626185Y-69998815D01*
X166529494Y-69919463D01*
X166419180Y-69860498D01*
X166299482Y-69824188D01*
X166210000Y-69815375D01*
X166210000Y-64213072D01*
X166250000Y-64213072D01*
X166374482Y-64200812D01*
X166494180Y-64164502D01*
X166604494Y-64105537D01*
X166701185Y-64026185D01*
X166780537Y-63929494D01*
X166839502Y-63819180D01*
X166875812Y-63699482D01*
X166888072Y-63575000D01*
X166888072Y-61775000D01*
X166875812Y-61650518D01*
X166839502Y-61530820D01*
X166780537Y-61420506D01*
X166701185Y-61323815D01*
X166604494Y-61244463D01*
X166494180Y-61185498D01*
X166374482Y-61149188D01*
X166285000Y-61140375D01*
X166285000Y-47345931D01*
X166289524Y-47299999D01*
X166271471Y-47116707D01*
X166219982Y-46946972D01*
X166218007Y-46940460D01*
X166131186Y-46778028D01*
X166014344Y-46635656D01*
X165978665Y-46606376D01*
X164645000Y-45272711D01*
X164645000Y-40936247D01*
X164656632Y-40928475D01*
X164788487Y-40796620D01*
X164810498Y-40869180D01*
X164869463Y-40979494D01*
X164948815Y-41076185D01*
X165045506Y-41155537D01*
X165155820Y-41214502D01*
X165275518Y-41250812D01*
X165400000Y-41263072D01*
X167100000Y-41263072D01*
X167224482Y-41250812D01*
X167344180Y-41214502D01*
X167454494Y-41155537D01*
X167551185Y-41076185D01*
X167630537Y-40979494D01*
X167689502Y-40869180D01*
X167725812Y-40749482D01*
X167738072Y-40625000D01*
X167738072Y-38925000D01*
X167725812Y-38800518D01*
X167689502Y-38680820D01*
X167630537Y-38570506D01*
X167551185Y-38473815D01*
X167454494Y-38394463D01*
X167344180Y-38335498D01*
X167224482Y-38299188D01*
X167185000Y-38295299D01*
X167185000Y-36420931D01*
X167189524Y-36374999D01*
X167171471Y-36191707D01*
X167139301Y-36085657D01*
X167118007Y-36015460D01*
X167031186Y-35853028D01*
X166914344Y-35710656D01*
X166878664Y-35681374D01*
X165818630Y-34621341D01*
X165789344Y-34585656D01*
X165646972Y-34468814D01*
X165484540Y-34381993D01*
X165308292Y-34328529D01*
X165170932Y-34315000D01*
X165125000Y-34310476D01*
X165079068Y-34315000D01*
X138870931Y-34315000D01*
X138824999Y-34310476D01*
X138641707Y-34328529D01*
X138588243Y-34344747D01*
X138465460Y-34381993D01*
X138303028Y-34468814D01*
X138160656Y-34585656D01*
X138131374Y-34621336D01*
X134196341Y-38556370D01*
X134160656Y-38585656D01*
X134043814Y-38728029D01*
X133956993Y-38890461D01*
X133916777Y-39023037D01*
X133903529Y-39066709D01*
X133885476Y-39250000D01*
X78910000Y-39250000D01*
X78910000Y-33660000D01*
X171590001Y-33660000D01*
X171590000Y-91590000D01*
G36*
X162556525Y-40721632D02*
G01*
X162763368Y-40928475D01*
X162775000Y-40936247D01*
X162775001Y-45614058D01*
X162770476Y-45660000D01*
X162788529Y-45843291D01*
X162819941Y-45946842D01*
X162841994Y-46019540D01*
X162928815Y-46181972D01*
X163045657Y-46324344D01*
X163081336Y-46353625D01*
X164415000Y-47687290D01*
X164415001Y-61140375D01*
X164325518Y-61149188D01*
X164205820Y-61185498D01*
X164095506Y-61244463D01*
X163998815Y-61323815D01*
X163919463Y-61420506D01*
X163860498Y-61530820D01*
X163854944Y-61549127D01*
X163788505Y-61482688D01*
X163537095Y-61314701D01*
X163257743Y-61198989D01*
X162961184Y-61140000D01*
X162658816Y-61140000D01*
X162362257Y-61198989D01*
X162082905Y-61314701D01*
X161831495Y-61482688D01*
X161617688Y-61696495D01*
X161588619Y-61740000D01*
X160237290Y-61740000D01*
X159610000Y-61112711D01*
X159610000Y-60968514D01*
X159558696Y-60710595D01*
X159458061Y-60467641D01*
X159311962Y-60248987D01*
X159126013Y-60063038D01*
X158907359Y-59916939D01*
X158664405Y-59816304D01*
X158406486Y-59765000D01*
X158143514Y-59765000D01*
X157885595Y-59816304D01*
X157642641Y-59916939D01*
X157423987Y-60063038D01*
X157238038Y-60248987D01*
X157091939Y-60467641D01*
X156991304Y-60710595D01*
X156940000Y-60968514D01*
X156940000Y-61231486D01*
X156991304Y-61489405D01*
X157091939Y-61732359D01*
X157238038Y-61951013D01*
X157423987Y-62136962D01*
X157642641Y-62283061D01*
X157885595Y-62383696D01*
X158143514Y-62435000D01*
X158287711Y-62435000D01*
X159156374Y-63303664D01*
X159185656Y-63339344D01*
X159328028Y-63456186D01*
X159490460Y-63543007D01*
X159613243Y-63580253D01*
X159666707Y-63596471D01*
X159849999Y-63614524D01*
X159895931Y-63610000D01*
X161588619Y-63610000D01*
X161617688Y-63653505D01*
X161831495Y-63867312D01*
X162082905Y-64035299D01*
X162362257Y-64151011D01*
X162658816Y-64210000D01*
X162961184Y-64210000D01*
X163257743Y-64151011D01*
X163537095Y-64035299D01*
X163788505Y-63867312D01*
X163854944Y-63800873D01*
X163860498Y-63819180D01*
X163919463Y-63929494D01*
X163998815Y-64026185D01*
X164095506Y-64105537D01*
X164205820Y-64164502D01*
X164325518Y-64200812D01*
X164340001Y-64202238D01*
X164340000Y-69815375D01*
X164250518Y-69824188D01*
X164130820Y-69860498D01*
X164020506Y-69919463D01*
X163923815Y-69998815D01*
X163844463Y-70095506D01*
X163785498Y-70205820D01*
X163779944Y-70224127D01*
X163713505Y-70157688D01*
X163462095Y-69989701D01*
X163182743Y-69873989D01*
X162886184Y-69815000D01*
X162583816Y-69815000D01*
X162287257Y-69873989D01*
X162007905Y-69989701D01*
X161756495Y-70157688D01*
X161649183Y-70265000D01*
X159677975Y-70265000D01*
X159576013Y-70163038D01*
X159357359Y-70016939D01*
X159114405Y-69916304D01*
X158856486Y-69865000D01*
X158593514Y-69865000D01*
X158335595Y-69916304D01*
X158092641Y-70016939D01*
X157873987Y-70163038D01*
X157688038Y-70348987D01*
X157541939Y-70567641D01*
X157441304Y-70810595D01*
X157390000Y-71068514D01*
X157390000Y-71331486D01*
X157441304Y-71589405D01*
X157541939Y-71832359D01*
X157688038Y-72051013D01*
X157873987Y-72236962D01*
X158092641Y-72383061D01*
X158335595Y-72483696D01*
X158593514Y-72535000D01*
X158856486Y-72535000D01*
X159114405Y-72483696D01*
X159357359Y-72383061D01*
X159576013Y-72236962D01*
X159677975Y-72135000D01*
X161413392Y-72135000D01*
X161542688Y-72328505D01*
X161756495Y-72542312D01*
X162007905Y-72710299D01*
X162287257Y-72826011D01*
X162583816Y-72885000D01*
X162886184Y-72885000D01*
X163182743Y-72826011D01*
X163462095Y-72710299D01*
X163713505Y-72542312D01*
X163779944Y-72475873D01*
X163785498Y-72494180D01*
X163844463Y-72604494D01*
X163923815Y-72701185D01*
X164020506Y-72780537D01*
X164130820Y-72839502D01*
X164250518Y-72875812D01*
X164340000Y-72884625D01*
X164340001Y-80847762D01*
X164325518Y-80849188D01*
X164205820Y-80885498D01*
X164095506Y-80944463D01*
X163998815Y-81023815D01*
X163919463Y-81120506D01*
X163860498Y-81230820D01*
X163854944Y-81249127D01*
X163788505Y-81182688D01*
X163537095Y-81014701D01*
X163257743Y-80898989D01*
X162961184Y-80840000D01*
X162658816Y-80840000D01*
X162362257Y-80898989D01*
X162082905Y-81014701D01*
X161831495Y-81182688D01*
X161617688Y-81396495D01*
X161588619Y-81440000D01*
X160104288Y-81440000D01*
X160032359Y-81391939D01*
X159789405Y-81291304D01*
X159531486Y-81240000D01*
X159268514Y-81240000D01*
X159010595Y-81291304D01*
X158767641Y-81391939D01*
X158548987Y-81538038D01*
X158363038Y-81723987D01*
X158216939Y-81942641D01*
X158116304Y-82185595D01*
X158065000Y-82443514D01*
X158065000Y-82706486D01*
X158116304Y-82964405D01*
X158216939Y-83207359D01*
X158363038Y-83426013D01*
X158548987Y-83611962D01*
X158767641Y-83758061D01*
X159010595Y-83858696D01*
X159268514Y-83910000D01*
X159531486Y-83910000D01*
X159789405Y-83858696D01*
X160032359Y-83758061D01*
X160251013Y-83611962D01*
X160436962Y-83426013D01*
X160514479Y-83310000D01*
X161588619Y-83310000D01*
X161617688Y-83353505D01*
X161831495Y-83567312D01*
X162082905Y-83735299D01*
X162362257Y-83851011D01*
X162658816Y-83910000D01*
X162961184Y-83910000D01*
X163257743Y-83851011D01*
X163537095Y-83735299D01*
X163788505Y-83567312D01*
X163854944Y-83500873D01*
X163860498Y-83519180D01*
X163919463Y-83629494D01*
X163998815Y-83726185D01*
X164095506Y-83805537D01*
X164205820Y-83864502D01*
X164325518Y-83900812D01*
X164415000Y-83909625D01*
X164415001Y-85962710D01*
X163587711Y-86790000D01*
X150587289Y-86790000D01*
X148435000Y-84637711D01*
X148435000Y-80253854D01*
X148439524Y-80207919D01*
X148421472Y-80024627D01*
X148382747Y-79896971D01*
X148368007Y-79848379D01*
X148281186Y-79685947D01*
X148164344Y-79543575D01*
X148128659Y-79514289D01*
X144820711Y-76206341D01*
X144791425Y-76170656D01*
X144649053Y-76053814D01*
X144486621Y-75966993D01*
X144310373Y-75913529D01*
X144173013Y-75900000D01*
X144127081Y-75895476D01*
X144085932Y-75899529D01*
X144078475Y-75888368D01*
X143871632Y-75681525D01*
X143697240Y-75565000D01*
X143871632Y-75448475D01*
X144078475Y-75241632D01*
X144086247Y-75230000D01*
X145107711Y-75230000D01*
X150845001Y-80967291D01*
X150845000Y-81622025D01*
X150743038Y-81723987D01*
X150596939Y-81942641D01*
X150496304Y-82185595D01*
X150445000Y-82443514D01*
X150445000Y-82706486D01*
X150496304Y-82964405D01*
X150596939Y-83207359D01*
X150743038Y-83426013D01*
X150928987Y-83611962D01*
X151147641Y-83758061D01*
X151390595Y-83858696D01*
X151648514Y-83910000D01*
X151911486Y-83910000D01*
X152169405Y-83858696D01*
X152412359Y-83758061D01*
X152631013Y-83611962D01*
X152816962Y-83426013D01*
X152963061Y-83207359D01*
X153063696Y-82964405D01*
X153115000Y-82706486D01*
X153115000Y-82443514D01*
X153063696Y-82185595D01*
X152963061Y-81942641D01*
X152816962Y-81723987D01*
X152715000Y-81622025D01*
X152715000Y-80625931D01*
X152719524Y-80579999D01*
X152701471Y-80396707D01*
X152685253Y-80343243D01*
X152648007Y-80220460D01*
X152561186Y-80058028D01*
X152444344Y-79915656D01*
X152408665Y-79886375D01*
X146188630Y-73666341D01*
X146159344Y-73630656D01*
X146016972Y-73513814D01*
X145854540Y-73426993D01*
X145678292Y-73373529D01*
X145540932Y-73360000D01*
X145495000Y-73355476D01*
X145449068Y-73360000D01*
X144086247Y-73360000D01*
X144078475Y-73348368D01*
X143871632Y-73141525D01*
X143697240Y-73025000D01*
X143871632Y-72908475D01*
X143995107Y-72785000D01*
X148054068Y-72785000D01*
X148100000Y-72789524D01*
X148145932Y-72785000D01*
X148283292Y-72771471D01*
X148459540Y-72718007D01*
X148621972Y-72631186D01*
X148764344Y-72514344D01*
X148793630Y-72478659D01*
X149137289Y-72135000D01*
X150152025Y-72135000D01*
X150253987Y-72236962D01*
X150472641Y-72383061D01*
X150715595Y-72483696D01*
X150973514Y-72535000D01*
X151236486Y-72535000D01*
X151494405Y-72483696D01*
X151737359Y-72383061D01*
X151956013Y-72236962D01*
X152141962Y-72051013D01*
X152288061Y-71832359D01*
X152388696Y-71589405D01*
X152440000Y-71331486D01*
X152440000Y-71068514D01*
X152388696Y-70810595D01*
X152288061Y-70567641D01*
X152141962Y-70348987D01*
X151956013Y-70163038D01*
X151737359Y-70016939D01*
X151494405Y-69916304D01*
X151236486Y-69865000D01*
X150973514Y-69865000D01*
X150715595Y-69916304D01*
X150472641Y-70016939D01*
X150253987Y-70163038D01*
X150152025Y-70265000D01*
X148795932Y-70265000D01*
X148750000Y-70260476D01*
X148704068Y-70265000D01*
X148566708Y-70278529D01*
X148390460Y-70331993D01*
X148228028Y-70418814D01*
X148085656Y-70535656D01*
X148056370Y-70571341D01*
X147712711Y-70915000D01*
X144149724Y-70915000D01*
X144078475Y-70808368D01*
X143871632Y-70601525D01*
X143697240Y-70485000D01*
X143871632Y-70368475D01*
X144078475Y-70161632D01*
X144086247Y-70150000D01*
X148039068Y-70150000D01*
X148085000Y-70154524D01*
X148130932Y-70150000D01*
X148268292Y-70136471D01*
X148444540Y-70083007D01*
X148606972Y-69996186D01*
X148749344Y-69879344D01*
X148778630Y-69843659D01*
X151283660Y-67338629D01*
X151319344Y-67309344D01*
X151436186Y-67166972D01*
X151523007Y-67004540D01*
X151576471Y-66828292D01*
X151590000Y-66690932D01*
X151590000Y-66690931D01*
X151594524Y-66645000D01*
X151590000Y-66599068D01*
X151590000Y-62052975D01*
X151691962Y-61951013D01*
X151838061Y-61732359D01*
X151938696Y-61489405D01*
X151990000Y-61231486D01*
X151990000Y-60968514D01*
X151938696Y-60710595D01*
X151838061Y-60467641D01*
X151691962Y-60248987D01*
X151506013Y-60063038D01*
X151287359Y-59916939D01*
X151044405Y-59816304D01*
X150786486Y-59765000D01*
X150523514Y-59765000D01*
X150265595Y-59816304D01*
X150022641Y-59916939D01*
X149803987Y-60063038D01*
X149618038Y-60248987D01*
X149471939Y-60467641D01*
X149371304Y-60710595D01*
X149320000Y-60968514D01*
X149320000Y-61231486D01*
X149371304Y-61489405D01*
X149471939Y-61732359D01*
X149618038Y-61951013D01*
X149720001Y-62052976D01*
X149720000Y-66257711D01*
X147697711Y-68280000D01*
X144086247Y-68280000D01*
X144078475Y-68268368D01*
X143871632Y-68061525D01*
X143697240Y-67945000D01*
X143871632Y-67828475D01*
X144078475Y-67621632D01*
X144240990Y-67378411D01*
X144352932Y-67108158D01*
X144410000Y-66821260D01*
X144410000Y-66528740D01*
X144352932Y-66241842D01*
X144240990Y-65971589D01*
X144078475Y-65728368D01*
X143871632Y-65521525D01*
X143697240Y-65405000D01*
X143871632Y-65288475D01*
X144078475Y-65081632D01*
X144240990Y-64838411D01*
X144352932Y-64568158D01*
X144410000Y-64281260D01*
X144410000Y-63988740D01*
X144352932Y-63701842D01*
X144240990Y-63431589D01*
X144078475Y-63188368D01*
X143871632Y-62981525D01*
X143697240Y-62865000D01*
X143871632Y-62748475D01*
X144078475Y-62541632D01*
X144240990Y-62298411D01*
X144352932Y-62028158D01*
X144410000Y-61741260D01*
X144410000Y-61448740D01*
X144352932Y-61161842D01*
X144240990Y-60891589D01*
X144078475Y-60648368D01*
X143871632Y-60441525D01*
X143697240Y-60325000D01*
X143871632Y-60208475D01*
X144078475Y-60001632D01*
X144240990Y-59758411D01*
X144352932Y-59488158D01*
X144410000Y-59201260D01*
X144410000Y-58908740D01*
X144352932Y-58621842D01*
X144240990Y-58351589D01*
X144078475Y-58108368D01*
X143871632Y-57901525D01*
X143697240Y-57785000D01*
X143871632Y-57668475D01*
X144078475Y-57461632D01*
X144240990Y-57218411D01*
X144352932Y-56948158D01*
X144410000Y-56661260D01*
X144410000Y-56368740D01*
X144352932Y-56081842D01*
X144240990Y-55811589D01*
X144078475Y-55568368D01*
X143871632Y-55361525D01*
X143697240Y-55245000D01*
X143871632Y-55128475D01*
X144078475Y-54921632D01*
X144240990Y-54678411D01*
X144352932Y-54408158D01*
X144410000Y-54121260D01*
X144410000Y-53828740D01*
X144352932Y-53541842D01*
X144240990Y-53271589D01*
X144078475Y-53028368D01*
X143871632Y-52821525D01*
X143697240Y-52705000D01*
X143871632Y-52588475D01*
X144078475Y-52381632D01*
X144240990Y-52138411D01*
X144352932Y-51868158D01*
X144410000Y-51581260D01*
X144410000Y-51288740D01*
X144352932Y-51001842D01*
X144240990Y-50731589D01*
X144078475Y-50488368D01*
X143871632Y-50281525D01*
X143697240Y-50165000D01*
X143871632Y-50048475D01*
X144078475Y-49841632D01*
X144240990Y-49598411D01*
X144352932Y-49328158D01*
X144410000Y-49041260D01*
X144410000Y-48748740D01*
X144352932Y-48461842D01*
X144240990Y-48191589D01*
X144078475Y-47948368D01*
X143871632Y-47741525D01*
X143697240Y-47625000D01*
X143871632Y-47508475D01*
X144020107Y-47360000D01*
X157904068Y-47360000D01*
X157950000Y-47364524D01*
X157995932Y-47360000D01*
X158133292Y-47346471D01*
X158309540Y-47293007D01*
X158471972Y-47206186D01*
X158614344Y-47089344D01*
X158643630Y-47053659D01*
X161798659Y-43898630D01*
X161834344Y-43869344D01*
X161951186Y-43726972D01*
X162007765Y-43621120D01*
X162038007Y-43564541D01*
X162091472Y-43388292D01*
X162109524Y-43205000D01*
X162105000Y-43159065D01*
X162105000Y-40936247D01*
X162116632Y-40928475D01*
X162323475Y-40721632D01*
X162440000Y-40547240D01*
X162556525Y-40721632D01*
G37*
X162556525Y-40721632D02*
X162763368Y-40928475D01*
X162775000Y-40936247D01*
X162775001Y-45614058D01*
X162770476Y-45660000D01*
X162788529Y-45843291D01*
X162819941Y-45946842D01*
X162841994Y-46019540D01*
X162928815Y-46181972D01*
X163045657Y-46324344D01*
X163081336Y-46353625D01*
X164415000Y-47687290D01*
X164415001Y-61140375D01*
X164325518Y-61149188D01*
X164205820Y-61185498D01*
X164095506Y-61244463D01*
X163998815Y-61323815D01*
X163919463Y-61420506D01*
X163860498Y-61530820D01*
X163854944Y-61549127D01*
X163788505Y-61482688D01*
X163537095Y-61314701D01*
X163257743Y-61198989D01*
X162961184Y-61140000D01*
X162658816Y-61140000D01*
X162362257Y-61198989D01*
X162082905Y-61314701D01*
X161831495Y-61482688D01*
X161617688Y-61696495D01*
X161588619Y-61740000D01*
X160237290Y-61740000D01*
X159610000Y-61112711D01*
X159610000Y-60968514D01*
X159558696Y-60710595D01*
X159458061Y-60467641D01*
X159311962Y-60248987D01*
X159126013Y-60063038D01*
X158907359Y-59916939D01*
X158664405Y-59816304D01*
X158406486Y-59765000D01*
X158143514Y-59765000D01*
X157885595Y-59816304D01*
X157642641Y-59916939D01*
X157423987Y-60063038D01*
X157238038Y-60248987D01*
X157091939Y-60467641D01*
X156991304Y-60710595D01*
X156940000Y-60968514D01*
X156940000Y-61231486D01*
X156991304Y-61489405D01*
X157091939Y-61732359D01*
X157238038Y-61951013D01*
X157423987Y-62136962D01*
X157642641Y-62283061D01*
X157885595Y-62383696D01*
X158143514Y-62435000D01*
X158287711Y-62435000D01*
X159156374Y-63303664D01*
X159185656Y-63339344D01*
X159328028Y-63456186D01*
X159490460Y-63543007D01*
X159613243Y-63580253D01*
X159666707Y-63596471D01*
X159849999Y-63614524D01*
X159895931Y-63610000D01*
X161588619Y-63610000D01*
X161617688Y-63653505D01*
X161831495Y-63867312D01*
X162082905Y-64035299D01*
X162362257Y-64151011D01*
X162658816Y-64210000D01*
X162961184Y-64210000D01*
X163257743Y-64151011D01*
X163537095Y-64035299D01*
X163788505Y-63867312D01*
X163854944Y-63800873D01*
X163860498Y-63819180D01*
X163919463Y-63929494D01*
X163998815Y-64026185D01*
X164095506Y-64105537D01*
X164205820Y-64164502D01*
X164325518Y-64200812D01*
X164340001Y-64202238D01*
X164340000Y-69815375D01*
X164250518Y-69824188D01*
X164130820Y-69860498D01*
X164020506Y-69919463D01*
X163923815Y-69998815D01*
X163844463Y-70095506D01*
X163785498Y-70205820D01*
X163779944Y-70224127D01*
X163713505Y-70157688D01*
X163462095Y-69989701D01*
X163182743Y-69873989D01*
X162886184Y-69815000D01*
X162583816Y-69815000D01*
X162287257Y-69873989D01*
X162007905Y-69989701D01*
X161756495Y-70157688D01*
X161649183Y-70265000D01*
X159677975Y-70265000D01*
X159576013Y-70163038D01*
X159357359Y-70016939D01*
X159114405Y-69916304D01*
X158856486Y-69865000D01*
X158593514Y-69865000D01*
X158335595Y-69916304D01*
X158092641Y-70016939D01*
X157873987Y-70163038D01*
X157688038Y-70348987D01*
X157541939Y-70567641D01*
X157441304Y-70810595D01*
X157390000Y-71068514D01*
X157390000Y-71331486D01*
X157441304Y-71589405D01*
X157541939Y-71832359D01*
X157688038Y-72051013D01*
X157873987Y-72236962D01*
X158092641Y-72383061D01*
X158335595Y-72483696D01*
X158593514Y-72535000D01*
X158856486Y-72535000D01*
X159114405Y-72483696D01*
X159357359Y-72383061D01*
X159576013Y-72236962D01*
X159677975Y-72135000D01*
X161413392Y-72135000D01*
X161542688Y-72328505D01*
X161756495Y-72542312D01*
X162007905Y-72710299D01*
X162287257Y-72826011D01*
X162583816Y-72885000D01*
X162886184Y-72885000D01*
X163182743Y-72826011D01*
X163462095Y-72710299D01*
X163713505Y-72542312D01*
X163779944Y-72475873D01*
X163785498Y-72494180D01*
X163844463Y-72604494D01*
X163923815Y-72701185D01*
X164020506Y-72780537D01*
X164130820Y-72839502D01*
X164250518Y-72875812D01*
X164340000Y-72884625D01*
X164340001Y-80847762D01*
X164325518Y-80849188D01*
X164205820Y-80885498D01*
X164095506Y-80944463D01*
X163998815Y-81023815D01*
X163919463Y-81120506D01*
X163860498Y-81230820D01*
X163854944Y-81249127D01*
X163788505Y-81182688D01*
X163537095Y-81014701D01*
X163257743Y-80898989D01*
X162961184Y-80840000D01*
X162658816Y-80840000D01*
X162362257Y-80898989D01*
X162082905Y-81014701D01*
X161831495Y-81182688D01*
X161617688Y-81396495D01*
X161588619Y-81440000D01*
X160104288Y-81440000D01*
X160032359Y-81391939D01*
X159789405Y-81291304D01*
X159531486Y-81240000D01*
X159268514Y-81240000D01*
X159010595Y-81291304D01*
X158767641Y-81391939D01*
X158548987Y-81538038D01*
X158363038Y-81723987D01*
X158216939Y-81942641D01*
X158116304Y-82185595D01*
X158065000Y-82443514D01*
X158065000Y-82706486D01*
X158116304Y-82964405D01*
X158216939Y-83207359D01*
X158363038Y-83426013D01*
X158548987Y-83611962D01*
X158767641Y-83758061D01*
X159010595Y-83858696D01*
X159268514Y-83910000D01*
X159531486Y-83910000D01*
X159789405Y-83858696D01*
X160032359Y-83758061D01*
X160251013Y-83611962D01*
X160436962Y-83426013D01*
X160514479Y-83310000D01*
X161588619Y-83310000D01*
X161617688Y-83353505D01*
X161831495Y-83567312D01*
X162082905Y-83735299D01*
X162362257Y-83851011D01*
X162658816Y-83910000D01*
X162961184Y-83910000D01*
X163257743Y-83851011D01*
X163537095Y-83735299D01*
X163788505Y-83567312D01*
X163854944Y-83500873D01*
X163860498Y-83519180D01*
X163919463Y-83629494D01*
X163998815Y-83726185D01*
X164095506Y-83805537D01*
X164205820Y-83864502D01*
X164325518Y-83900812D01*
X164415000Y-83909625D01*
X164415001Y-85962710D01*
X163587711Y-86790000D01*
X150587289Y-86790000D01*
X148435000Y-84637711D01*
X148435000Y-80253854D01*
X148439524Y-80207919D01*
X148421472Y-80024627D01*
X148382747Y-79896971D01*
X148368007Y-79848379D01*
X148281186Y-79685947D01*
X148164344Y-79543575D01*
X148128659Y-79514289D01*
X144820711Y-76206341D01*
X144791425Y-76170656D01*
X144649053Y-76053814D01*
X144486621Y-75966993D01*
X144310373Y-75913529D01*
X144173013Y-75900000D01*
X144127081Y-75895476D01*
X144085932Y-75899529D01*
X144078475Y-75888368D01*
X143871632Y-75681525D01*
X143697240Y-75565000D01*
X143871632Y-75448475D01*
X144078475Y-75241632D01*
X144086247Y-75230000D01*
X145107711Y-75230000D01*
X150845001Y-80967291D01*
X150845000Y-81622025D01*
X150743038Y-81723987D01*
X150596939Y-81942641D01*
X150496304Y-82185595D01*
X150445000Y-82443514D01*
X150445000Y-82706486D01*
X150496304Y-82964405D01*
X150596939Y-83207359D01*
X150743038Y-83426013D01*
X150928987Y-83611962D01*
X151147641Y-83758061D01*
X151390595Y-83858696D01*
X151648514Y-83910000D01*
X151911486Y-83910000D01*
X152169405Y-83858696D01*
X152412359Y-83758061D01*
X152631013Y-83611962D01*
X152816962Y-83426013D01*
X152963061Y-83207359D01*
X153063696Y-82964405D01*
X153115000Y-82706486D01*
X153115000Y-82443514D01*
X153063696Y-82185595D01*
X152963061Y-81942641D01*
X152816962Y-81723987D01*
X152715000Y-81622025D01*
X152715000Y-80625931D01*
X152719524Y-80579999D01*
X152701471Y-80396707D01*
X152685253Y-80343243D01*
X152648007Y-80220460D01*
X152561186Y-80058028D01*
X152444344Y-79915656D01*
X152408665Y-79886375D01*
X146188630Y-73666341D01*
X146159344Y-73630656D01*
X146016972Y-73513814D01*
X145854540Y-73426993D01*
X145678292Y-73373529D01*
X145540932Y-73360000D01*
X145495000Y-73355476D01*
X145449068Y-73360000D01*
X144086247Y-73360000D01*
X144078475Y-73348368D01*
X143871632Y-73141525D01*
X143697240Y-73025000D01*
X143871632Y-72908475D01*
X143995107Y-72785000D01*
X148054068Y-72785000D01*
X148100000Y-72789524D01*
X148145932Y-72785000D01*
X148283292Y-72771471D01*
X148459540Y-72718007D01*
X148621972Y-72631186D01*
X148764344Y-72514344D01*
X148793630Y-72478659D01*
X149137289Y-72135000D01*
X150152025Y-72135000D01*
X150253987Y-72236962D01*
X150472641Y-72383061D01*
X150715595Y-72483696D01*
X150973514Y-72535000D01*
X151236486Y-72535000D01*
X151494405Y-72483696D01*
X151737359Y-72383061D01*
X151956013Y-72236962D01*
X152141962Y-72051013D01*
X152288061Y-71832359D01*
X152388696Y-71589405D01*
X152440000Y-71331486D01*
X152440000Y-71068514D01*
X152388696Y-70810595D01*
X152288061Y-70567641D01*
X152141962Y-70348987D01*
X151956013Y-70163038D01*
X151737359Y-70016939D01*
X151494405Y-69916304D01*
X151236486Y-69865000D01*
X150973514Y-69865000D01*
X150715595Y-69916304D01*
X150472641Y-70016939D01*
X150253987Y-70163038D01*
X150152025Y-70265000D01*
X148795932Y-70265000D01*
X148750000Y-70260476D01*
X148704068Y-70265000D01*
X148566708Y-70278529D01*
X148390460Y-70331993D01*
X148228028Y-70418814D01*
X148085656Y-70535656D01*
X148056370Y-70571341D01*
X147712711Y-70915000D01*
X144149724Y-70915000D01*
X144078475Y-70808368D01*
X143871632Y-70601525D01*
X143697240Y-70485000D01*
X143871632Y-70368475D01*
X144078475Y-70161632D01*
X144086247Y-70150000D01*
X148039068Y-70150000D01*
X148085000Y-70154524D01*
X148130932Y-70150000D01*
X148268292Y-70136471D01*
X148444540Y-70083007D01*
X148606972Y-69996186D01*
X148749344Y-69879344D01*
X148778630Y-69843659D01*
X151283660Y-67338629D01*
X151319344Y-67309344D01*
X151436186Y-67166972D01*
X151523007Y-67004540D01*
X151576471Y-66828292D01*
X151590000Y-66690932D01*
X151590000Y-66690931D01*
X151594524Y-66645000D01*
X151590000Y-66599068D01*
X151590000Y-62052975D01*
X151691962Y-61951013D01*
X151838061Y-61732359D01*
X151938696Y-61489405D01*
X151990000Y-61231486D01*
X151990000Y-60968514D01*
X151938696Y-60710595D01*
X151838061Y-60467641D01*
X151691962Y-60248987D01*
X151506013Y-60063038D01*
X151287359Y-59916939D01*
X151044405Y-59816304D01*
X150786486Y-59765000D01*
X150523514Y-59765000D01*
X150265595Y-59816304D01*
X150022641Y-59916939D01*
X149803987Y-60063038D01*
X149618038Y-60248987D01*
X149471939Y-60467641D01*
X149371304Y-60710595D01*
X149320000Y-60968514D01*
X149320000Y-61231486D01*
X149371304Y-61489405D01*
X149471939Y-61732359D01*
X149618038Y-61951013D01*
X149720001Y-62052976D01*
X149720000Y-66257711D01*
X147697711Y-68280000D01*
X144086247Y-68280000D01*
X144078475Y-68268368D01*
X143871632Y-68061525D01*
X143697240Y-67945000D01*
X143871632Y-67828475D01*
X144078475Y-67621632D01*
X144240990Y-67378411D01*
X144352932Y-67108158D01*
X144410000Y-66821260D01*
X144410000Y-66528740D01*
X144352932Y-66241842D01*
X144240990Y-65971589D01*
X144078475Y-65728368D01*
X143871632Y-65521525D01*
X143697240Y-65405000D01*
X143871632Y-65288475D01*
X144078475Y-65081632D01*
X144240990Y-64838411D01*
X144352932Y-64568158D01*
X144410000Y-64281260D01*
X144410000Y-63988740D01*
X144352932Y-63701842D01*
X144240990Y-63431589D01*
X144078475Y-63188368D01*
X143871632Y-62981525D01*
X143697240Y-62865000D01*
X143871632Y-62748475D01*
X144078475Y-62541632D01*
X144240990Y-62298411D01*
X144352932Y-62028158D01*
X144410000Y-61741260D01*
X144410000Y-61448740D01*
X144352932Y-61161842D01*
X144240990Y-60891589D01*
X144078475Y-60648368D01*
X143871632Y-60441525D01*
X143697240Y-60325000D01*
X143871632Y-60208475D01*
X144078475Y-60001632D01*
X144240990Y-59758411D01*
X144352932Y-59488158D01*
X144410000Y-59201260D01*
X144410000Y-58908740D01*
X144352932Y-58621842D01*
X144240990Y-58351589D01*
X144078475Y-58108368D01*
X143871632Y-57901525D01*
X143697240Y-57785000D01*
X143871632Y-57668475D01*
X144078475Y-57461632D01*
X144240990Y-57218411D01*
X144352932Y-56948158D01*
X144410000Y-56661260D01*
X144410000Y-56368740D01*
X144352932Y-56081842D01*
X144240990Y-55811589D01*
X144078475Y-55568368D01*
X143871632Y-55361525D01*
X143697240Y-55245000D01*
X143871632Y-55128475D01*
X144078475Y-54921632D01*
X144240990Y-54678411D01*
X144352932Y-54408158D01*
X144410000Y-54121260D01*
X144410000Y-53828740D01*
X144352932Y-53541842D01*
X144240990Y-53271589D01*
X144078475Y-53028368D01*
X143871632Y-52821525D01*
X143697240Y-52705000D01*
X143871632Y-52588475D01*
X144078475Y-52381632D01*
X144240990Y-52138411D01*
X144352932Y-51868158D01*
X144410000Y-51581260D01*
X144410000Y-51288740D01*
X144352932Y-51001842D01*
X144240990Y-50731589D01*
X144078475Y-50488368D01*
X143871632Y-50281525D01*
X143697240Y-50165000D01*
X143871632Y-50048475D01*
X144078475Y-49841632D01*
X144240990Y-49598411D01*
X144352932Y-49328158D01*
X144410000Y-49041260D01*
X144410000Y-48748740D01*
X144352932Y-48461842D01*
X144240990Y-48191589D01*
X144078475Y-47948368D01*
X143871632Y-47741525D01*
X143697240Y-47625000D01*
X143871632Y-47508475D01*
X144020107Y-47360000D01*
X157904068Y-47360000D01*
X157950000Y-47364524D01*
X157995932Y-47360000D01*
X158133292Y-47346471D01*
X158309540Y-47293007D01*
X158471972Y-47206186D01*
X158614344Y-47089344D01*
X158643630Y-47053659D01*
X161798659Y-43898630D01*
X161834344Y-43869344D01*
X161951186Y-43726972D01*
X162007765Y-43621120D01*
X162038007Y-43564541D01*
X162091472Y-43388292D01*
X162109524Y-43205000D01*
X162105000Y-43159065D01*
X162105000Y-40936247D01*
X162116632Y-40928475D01*
X162323475Y-40721632D01*
X162440000Y-40547240D01*
X162556525Y-40721632D01*
G36*
X137496336Y-39306375D02*
G01*
X137460657Y-39335656D01*
X137343815Y-39478028D01*
X137301937Y-39556377D01*
X137256994Y-39640460D01*
X137203529Y-39816709D01*
X137185476Y-40000000D01*
X137190001Y-40045942D01*
X137190000Y-52404068D01*
X137185476Y-52450000D01*
X137190000Y-52495931D01*
X137203529Y-52633291D01*
X137256993Y-52809539D01*
X137343814Y-52971971D01*
X137460656Y-53114344D01*
X137496341Y-53143630D01*
X138956370Y-54603659D01*
X138985656Y-54639344D01*
X139128028Y-54756186D01*
X139233880Y-54812765D01*
X139290459Y-54843007D01*
X139466708Y-54896472D01*
X139650000Y-54914524D01*
X139695935Y-54910000D01*
X141763753Y-54910000D01*
X141771525Y-54921632D01*
X141978368Y-55128475D01*
X142152760Y-55245000D01*
X141978368Y-55361525D01*
X141771525Y-55568368D01*
X141609010Y-55811589D01*
X141497068Y-56081842D01*
X141440000Y-56368740D01*
X141440000Y-56661260D01*
X141497068Y-56948158D01*
X141609010Y-57218411D01*
X141771525Y-57461632D01*
X141978368Y-57668475D01*
X142152760Y-57785000D01*
X141978368Y-57901525D01*
X141771525Y-58108368D01*
X141609010Y-58351589D01*
X141497068Y-58621842D01*
X141440000Y-58908740D01*
X141440000Y-59201260D01*
X141497068Y-59488158D01*
X141609010Y-59758411D01*
X141771525Y-60001632D01*
X141978368Y-60208475D01*
X142152760Y-60325000D01*
X141978368Y-60441525D01*
X141771525Y-60648368D01*
X141609010Y-60891589D01*
X141497068Y-61161842D01*
X141440000Y-61448740D01*
X141440000Y-61741260D01*
X141497068Y-62028158D01*
X141609010Y-62298411D01*
X141771525Y-62541632D01*
X141978368Y-62748475D01*
X142152760Y-62865000D01*
X141978368Y-62981525D01*
X141771525Y-63188368D01*
X141609010Y-63431589D01*
X141497068Y-63701842D01*
X141440000Y-63988740D01*
X141440000Y-64281260D01*
X141497068Y-64568158D01*
X141609010Y-64838411D01*
X141771525Y-65081632D01*
X141978368Y-65288475D01*
X142152760Y-65405000D01*
X141978368Y-65521525D01*
X141771525Y-65728368D01*
X141609010Y-65971589D01*
X141497068Y-66241842D01*
X141440000Y-66528740D01*
X141440000Y-66821260D01*
X141497068Y-67108158D01*
X141609010Y-67378411D01*
X141771525Y-67621632D01*
X141978368Y-67828475D01*
X142152760Y-67945000D01*
X141978368Y-68061525D01*
X141771525Y-68268368D01*
X141609010Y-68511589D01*
X141497068Y-68781842D01*
X141440000Y-69068740D01*
X141440000Y-69361260D01*
X141497068Y-69648158D01*
X141609010Y-69918411D01*
X141771525Y-70161632D01*
X141978368Y-70368475D01*
X142152760Y-70485000D01*
X141978368Y-70601525D01*
X141771525Y-70808368D01*
X141609010Y-71051589D01*
X141497068Y-71321842D01*
X141440000Y-71608740D01*
X141440000Y-71901260D01*
X141497068Y-72188158D01*
X141609010Y-72458411D01*
X141771525Y-72701632D01*
X141978368Y-72908475D01*
X142152760Y-73025000D01*
X141978368Y-73141525D01*
X141771525Y-73348368D01*
X141609010Y-73591589D01*
X141497068Y-73861842D01*
X141440000Y-74148740D01*
X141440000Y-74441260D01*
X141497068Y-74728158D01*
X141609010Y-74998411D01*
X141771525Y-75241632D01*
X141978368Y-75448475D01*
X142152760Y-75565000D01*
X141978368Y-75681525D01*
X141771525Y-75888368D01*
X141609010Y-76131589D01*
X141497068Y-76401842D01*
X141440000Y-76688740D01*
X141440000Y-76981260D01*
X141497068Y-77268158D01*
X141609010Y-77538411D01*
X141771525Y-77781632D01*
X141903380Y-77913487D01*
X141830820Y-77935498D01*
X141720506Y-77994463D01*
X141623815Y-78073815D01*
X141544463Y-78170506D01*
X141485498Y-78280820D01*
X141449188Y-78400518D01*
X141445299Y-78440000D01*
X138812289Y-78440000D01*
X135760000Y-75387711D01*
X135760000Y-39637289D01*
X139212290Y-36185000D01*
X140617710Y-36185000D01*
X137496336Y-39306375D01*
G37*
X137496336Y-39306375D02*
X137460657Y-39335656D01*
X137343815Y-39478028D01*
X137301937Y-39556377D01*
X137256994Y-39640460D01*
X137203529Y-39816709D01*
X137185476Y-40000000D01*
X137190001Y-40045942D01*
X137190000Y-52404068D01*
X137185476Y-52450000D01*
X137190000Y-52495931D01*
X137203529Y-52633291D01*
X137256993Y-52809539D01*
X137343814Y-52971971D01*
X137460656Y-53114344D01*
X137496341Y-53143630D01*
X138956370Y-54603659D01*
X138985656Y-54639344D01*
X139128028Y-54756186D01*
X139233880Y-54812765D01*
X139290459Y-54843007D01*
X139466708Y-54896472D01*
X139650000Y-54914524D01*
X139695935Y-54910000D01*
X141763753Y-54910000D01*
X141771525Y-54921632D01*
X141978368Y-55128475D01*
X142152760Y-55245000D01*
X141978368Y-55361525D01*
X141771525Y-55568368D01*
X141609010Y-55811589D01*
X141497068Y-56081842D01*
X141440000Y-56368740D01*
X141440000Y-56661260D01*
X141497068Y-56948158D01*
X141609010Y-57218411D01*
X141771525Y-57461632D01*
X141978368Y-57668475D01*
X142152760Y-57785000D01*
X141978368Y-57901525D01*
X141771525Y-58108368D01*
X141609010Y-58351589D01*
X141497068Y-58621842D01*
X141440000Y-58908740D01*
X141440000Y-59201260D01*
X141497068Y-59488158D01*
X141609010Y-59758411D01*
X141771525Y-60001632D01*
X141978368Y-60208475D01*
X142152760Y-60325000D01*
X141978368Y-60441525D01*
X141771525Y-60648368D01*
X141609010Y-60891589D01*
X141497068Y-61161842D01*
X141440000Y-61448740D01*
X141440000Y-61741260D01*
X141497068Y-62028158D01*
X141609010Y-62298411D01*
X141771525Y-62541632D01*
X141978368Y-62748475D01*
X142152760Y-62865000D01*
X141978368Y-62981525D01*
X141771525Y-63188368D01*
X141609010Y-63431589D01*
X141497068Y-63701842D01*
X141440000Y-63988740D01*
X141440000Y-64281260D01*
X141497068Y-64568158D01*
X141609010Y-64838411D01*
X141771525Y-65081632D01*
X141978368Y-65288475D01*
X142152760Y-65405000D01*
X141978368Y-65521525D01*
X141771525Y-65728368D01*
X141609010Y-65971589D01*
X141497068Y-66241842D01*
X141440000Y-66528740D01*
X141440000Y-66821260D01*
X141497068Y-67108158D01*
X141609010Y-67378411D01*
X141771525Y-67621632D01*
X141978368Y-67828475D01*
X142152760Y-67945000D01*
X141978368Y-68061525D01*
X141771525Y-68268368D01*
X141609010Y-68511589D01*
X141497068Y-68781842D01*
X141440000Y-69068740D01*
X141440000Y-69361260D01*
X141497068Y-69648158D01*
X141609010Y-69918411D01*
X141771525Y-70161632D01*
X141978368Y-70368475D01*
X142152760Y-70485000D01*
X141978368Y-70601525D01*
X141771525Y-70808368D01*
X141609010Y-71051589D01*
X141497068Y-71321842D01*
X141440000Y-71608740D01*
X141440000Y-71901260D01*
X141497068Y-72188158D01*
X141609010Y-72458411D01*
X141771525Y-72701632D01*
X141978368Y-72908475D01*
X142152760Y-73025000D01*
X141978368Y-73141525D01*
X141771525Y-73348368D01*
X141609010Y-73591589D01*
X141497068Y-73861842D01*
X141440000Y-74148740D01*
X141440000Y-74441260D01*
X141497068Y-74728158D01*
X141609010Y-74998411D01*
X141771525Y-75241632D01*
X141978368Y-75448475D01*
X142152760Y-75565000D01*
X141978368Y-75681525D01*
X141771525Y-75888368D01*
X141609010Y-76131589D01*
X141497068Y-76401842D01*
X141440000Y-76688740D01*
X141440000Y-76981260D01*
X141497068Y-77268158D01*
X141609010Y-77538411D01*
X141771525Y-77781632D01*
X141903380Y-77913487D01*
X141830820Y-77935498D01*
X141720506Y-77994463D01*
X141623815Y-78073815D01*
X141544463Y-78170506D01*
X141485498Y-78280820D01*
X141449188Y-78400518D01*
X141445299Y-78440000D01*
X138812289Y-78440000D01*
X135760000Y-75387711D01*
X135760000Y-39637289D01*
X139212290Y-36185000D01*
X140617710Y-36185000D01*
X137496336Y-39306375D01*
G36*
X157695001Y-38092290D02*
G01*
X157695001Y-38613752D01*
X157683368Y-38621525D01*
X157476525Y-38828368D01*
X157360000Y-39002760D01*
X157243475Y-38828368D01*
X157036632Y-38621525D01*
X156793411Y-38459010D01*
X156523158Y-38347068D01*
X156236260Y-38290000D01*
X155943740Y-38290000D01*
X155656842Y-38347068D01*
X155386589Y-38459010D01*
X155143368Y-38621525D01*
X154936525Y-38828368D01*
X154820000Y-39002760D01*
X154703475Y-38828368D01*
X154496632Y-38621525D01*
X154253411Y-38459010D01*
X153983158Y-38347068D01*
X153696260Y-38290000D01*
X153403740Y-38290000D01*
X153116842Y-38347068D01*
X152846589Y-38459010D01*
X152603368Y-38621525D01*
X152396525Y-38828368D01*
X152280000Y-39002760D01*
X152163475Y-38828368D01*
X151956632Y-38621525D01*
X151713411Y-38459010D01*
X151443158Y-38347068D01*
X151156260Y-38290000D01*
X150863740Y-38290000D01*
X150576842Y-38347068D01*
X150306589Y-38459010D01*
X150063368Y-38621525D01*
X149856525Y-38828368D01*
X149740000Y-39002760D01*
X149623475Y-38828368D01*
X149416632Y-38621525D01*
X149173411Y-38459010D01*
X148903158Y-38347068D01*
X148616260Y-38290000D01*
X148323740Y-38290000D01*
X148036842Y-38347068D01*
X147766589Y-38459010D01*
X147523368Y-38621525D01*
X147316525Y-38828368D01*
X147154010Y-39071589D01*
X147042068Y-39341842D01*
X146985000Y-39628740D01*
X146985000Y-39921260D01*
X147042068Y-40208158D01*
X147154010Y-40478411D01*
X147316525Y-40721632D01*
X147523368Y-40928475D01*
X147535000Y-40936248D01*
X147535001Y-42192710D01*
X146847711Y-42880000D01*
X144086247Y-42880000D01*
X144078475Y-42868368D01*
X143871632Y-42661525D01*
X143628411Y-42499010D01*
X143358158Y-42387068D01*
X143071260Y-42330000D01*
X142778740Y-42330000D01*
X142491842Y-42387068D01*
X142221589Y-42499010D01*
X141978368Y-42661525D01*
X141771525Y-42868368D01*
X141609010Y-43111589D01*
X141497068Y-43381842D01*
X141440000Y-43668740D01*
X141440000Y-43961260D01*
X141497068Y-44248158D01*
X141609010Y-44518411D01*
X141771525Y-44761632D01*
X141978368Y-44968475D01*
X142152760Y-45085000D01*
X141978368Y-45201525D01*
X141771525Y-45408368D01*
X141609010Y-45651589D01*
X141497068Y-45921842D01*
X141440000Y-46208740D01*
X141440000Y-46501260D01*
X141497068Y-46788158D01*
X141609010Y-47058411D01*
X141771525Y-47301632D01*
X141978368Y-47508475D01*
X142152760Y-47625000D01*
X141978368Y-47741525D01*
X141771525Y-47948368D01*
X141609010Y-48191589D01*
X141497068Y-48461842D01*
X141440000Y-48748740D01*
X141440000Y-49041260D01*
X141497068Y-49328158D01*
X141609010Y-49598411D01*
X141771525Y-49841632D01*
X141978368Y-50048475D01*
X142152760Y-50165000D01*
X141978368Y-50281525D01*
X141771525Y-50488368D01*
X141609010Y-50731589D01*
X141497068Y-51001842D01*
X141440000Y-51288740D01*
X141440000Y-51581260D01*
X141497068Y-51868158D01*
X141609010Y-52138411D01*
X141771525Y-52381632D01*
X141978368Y-52588475D01*
X142152760Y-52705000D01*
X141978368Y-52821525D01*
X141771525Y-53028368D01*
X141763753Y-53040000D01*
X140037289Y-53040000D01*
X139060000Y-52062711D01*
X139060000Y-40387289D01*
X141762290Y-37685000D01*
X157287711Y-37685000D01*
X157695001Y-38092290D01*
G37*
X157695001Y-38092290D02*
X157695001Y-38613752D01*
X157683368Y-38621525D01*
X157476525Y-38828368D01*
X157360000Y-39002760D01*
X157243475Y-38828368D01*
X157036632Y-38621525D01*
X156793411Y-38459010D01*
X156523158Y-38347068D01*
X156236260Y-38290000D01*
X155943740Y-38290000D01*
X155656842Y-38347068D01*
X155386589Y-38459010D01*
X155143368Y-38621525D01*
X154936525Y-38828368D01*
X154820000Y-39002760D01*
X154703475Y-38828368D01*
X154496632Y-38621525D01*
X154253411Y-38459010D01*
X153983158Y-38347068D01*
X153696260Y-38290000D01*
X153403740Y-38290000D01*
X153116842Y-38347068D01*
X152846589Y-38459010D01*
X152603368Y-38621525D01*
X152396525Y-38828368D01*
X152280000Y-39002760D01*
X152163475Y-38828368D01*
X151956632Y-38621525D01*
X151713411Y-38459010D01*
X151443158Y-38347068D01*
X151156260Y-38290000D01*
X150863740Y-38290000D01*
X150576842Y-38347068D01*
X150306589Y-38459010D01*
X150063368Y-38621525D01*
X149856525Y-38828368D01*
X149740000Y-39002760D01*
X149623475Y-38828368D01*
X149416632Y-38621525D01*
X149173411Y-38459010D01*
X148903158Y-38347068D01*
X148616260Y-38290000D01*
X148323740Y-38290000D01*
X148036842Y-38347068D01*
X147766589Y-38459010D01*
X147523368Y-38621525D01*
X147316525Y-38828368D01*
X147154010Y-39071589D01*
X147042068Y-39341842D01*
X146985000Y-39628740D01*
X146985000Y-39921260D01*
X147042068Y-40208158D01*
X147154010Y-40478411D01*
X147316525Y-40721632D01*
X147523368Y-40928475D01*
X147535000Y-40936248D01*
X147535001Y-42192710D01*
X146847711Y-42880000D01*
X144086247Y-42880000D01*
X144078475Y-42868368D01*
X143871632Y-42661525D01*
X143628411Y-42499010D01*
X143358158Y-42387068D01*
X143071260Y-42330000D01*
X142778740Y-42330000D01*
X142491842Y-42387068D01*
X142221589Y-42499010D01*
X141978368Y-42661525D01*
X141771525Y-42868368D01*
X141609010Y-43111589D01*
X141497068Y-43381842D01*
X141440000Y-43668740D01*
X141440000Y-43961260D01*
X141497068Y-44248158D01*
X141609010Y-44518411D01*
X141771525Y-44761632D01*
X141978368Y-44968475D01*
X142152760Y-45085000D01*
X141978368Y-45201525D01*
X141771525Y-45408368D01*
X141609010Y-45651589D01*
X141497068Y-45921842D01*
X141440000Y-46208740D01*
X141440000Y-46501260D01*
X141497068Y-46788158D01*
X141609010Y-47058411D01*
X141771525Y-47301632D01*
X141978368Y-47508475D01*
X142152760Y-47625000D01*
X141978368Y-47741525D01*
X141771525Y-47948368D01*
X141609010Y-48191589D01*
X141497068Y-48461842D01*
X141440000Y-48748740D01*
X141440000Y-49041260D01*
X141497068Y-49328158D01*
X141609010Y-49598411D01*
X141771525Y-49841632D01*
X141978368Y-50048475D01*
X142152760Y-50165000D01*
X141978368Y-50281525D01*
X141771525Y-50488368D01*
X141609010Y-50731589D01*
X141497068Y-51001842D01*
X141440000Y-51288740D01*
X141440000Y-51581260D01*
X141497068Y-51868158D01*
X141609010Y-52138411D01*
X141771525Y-52381632D01*
X141978368Y-52588475D01*
X142152760Y-52705000D01*
X141978368Y-52821525D01*
X141771525Y-53028368D01*
X141763753Y-53040000D01*
X140037289Y-53040000D01*
X139060000Y-52062711D01*
X139060000Y-40387289D01*
X141762290Y-37685000D01*
X157287711Y-37685000D01*
X157695001Y-38092290D01*
G36*
X160016525Y-40721632D02*
G01*
X160223368Y-40928475D01*
X160235000Y-40936247D01*
X160235001Y-42744486D01*
X157489488Y-45490000D01*
X144133020Y-45490000D01*
X144078475Y-45408368D01*
X143871632Y-45201525D01*
X143697240Y-45085000D01*
X143871632Y-44968475D01*
X144078475Y-44761632D01*
X144086247Y-44750000D01*
X147189068Y-44750000D01*
X147235000Y-44754524D01*
X147280932Y-44750000D01*
X147418292Y-44736471D01*
X147594540Y-44683007D01*
X147756972Y-44596186D01*
X147899344Y-44479344D01*
X147928630Y-44443659D01*
X149056123Y-43316166D01*
X149075296Y-43292803D01*
X149134344Y-43244344D01*
X149251186Y-43101972D01*
X149338007Y-42939540D01*
X149391471Y-42763292D01*
X149405000Y-42625932D01*
X149405000Y-40936247D01*
X149416632Y-40928475D01*
X149623475Y-40721632D01*
X149740000Y-40547240D01*
X149856525Y-40721632D01*
X150063368Y-40928475D01*
X150306589Y-41090990D01*
X150576842Y-41202932D01*
X150863740Y-41260000D01*
X151156260Y-41260000D01*
X151443158Y-41202932D01*
X151713411Y-41090990D01*
X151956632Y-40928475D01*
X152163475Y-40721632D01*
X152280000Y-40547240D01*
X152396525Y-40721632D01*
X152603368Y-40928475D01*
X152846589Y-41090990D01*
X153116842Y-41202932D01*
X153403740Y-41260000D01*
X153696260Y-41260000D01*
X153983158Y-41202932D01*
X154253411Y-41090990D01*
X154496632Y-40928475D01*
X154703475Y-40721632D01*
X154820000Y-40547240D01*
X154936525Y-40721632D01*
X155143368Y-40928475D01*
X155386589Y-41090990D01*
X155656842Y-41202932D01*
X155943740Y-41260000D01*
X156236260Y-41260000D01*
X156523158Y-41202932D01*
X156793411Y-41090990D01*
X157036632Y-40928475D01*
X157243475Y-40721632D01*
X157360000Y-40547240D01*
X157476525Y-40721632D01*
X157683368Y-40928475D01*
X157926589Y-41090990D01*
X158196842Y-41202932D01*
X158483740Y-41260000D01*
X158776260Y-41260000D01*
X159063158Y-41202932D01*
X159333411Y-41090990D01*
X159576632Y-40928475D01*
X159783475Y-40721632D01*
X159900000Y-40547240D01*
X160016525Y-40721632D01*
G37*
X160016525Y-40721632D02*
X160223368Y-40928475D01*
X160235000Y-40936247D01*
X160235001Y-42744486D01*
X157489488Y-45490000D01*
X144133020Y-45490000D01*
X144078475Y-45408368D01*
X143871632Y-45201525D01*
X143697240Y-45085000D01*
X143871632Y-44968475D01*
X144078475Y-44761632D01*
X144086247Y-44750000D01*
X147189068Y-44750000D01*
X147235000Y-44754524D01*
X147280932Y-44750000D01*
X147418292Y-44736471D01*
X147594540Y-44683007D01*
X147756972Y-44596186D01*
X147899344Y-44479344D01*
X147928630Y-44443659D01*
X149056123Y-43316166D01*
X149075296Y-43292803D01*
X149134344Y-43244344D01*
X149251186Y-43101972D01*
X149338007Y-42939540D01*
X149391471Y-42763292D01*
X149405000Y-42625932D01*
X149405000Y-40936247D01*
X149416632Y-40928475D01*
X149623475Y-40721632D01*
X149740000Y-40547240D01*
X149856525Y-40721632D01*
X150063368Y-40928475D01*
X150306589Y-41090990D01*
X150576842Y-41202932D01*
X150863740Y-41260000D01*
X151156260Y-41260000D01*
X151443158Y-41202932D01*
X151713411Y-41090990D01*
X151956632Y-40928475D01*
X152163475Y-40721632D01*
X152280000Y-40547240D01*
X152396525Y-40721632D01*
X152603368Y-40928475D01*
X152846589Y-41090990D01*
X153116842Y-41202932D01*
X153403740Y-41260000D01*
X153696260Y-41260000D01*
X153983158Y-41202932D01*
X154253411Y-41090990D01*
X154496632Y-40928475D01*
X154703475Y-40721632D01*
X154820000Y-40547240D01*
X154936525Y-40721632D01*
X155143368Y-40928475D01*
X155386589Y-41090990D01*
X155656842Y-41202932D01*
X155943740Y-41260000D01*
X156236260Y-41260000D01*
X156523158Y-41202932D01*
X156793411Y-41090990D01*
X157036632Y-40928475D01*
X157243475Y-40721632D01*
X157360000Y-40547240D01*
X157476525Y-40721632D01*
X157683368Y-40928475D01*
X157926589Y-41090990D01*
X158196842Y-41202932D01*
X158483740Y-41260000D01*
X158776260Y-41260000D01*
X159063158Y-41202932D01*
X159333411Y-41090990D01*
X159576632Y-40928475D01*
X159783475Y-40721632D01*
X159900000Y-40547240D01*
X160016525Y-40721632D01*
G36*
X165315001Y-36762291D02*
G01*
X165315000Y-38295299D01*
X165275518Y-38299188D01*
X165155820Y-38335498D01*
X165045506Y-38394463D01*
X164948815Y-38473815D01*
X164869463Y-38570506D01*
X164810498Y-38680820D01*
X164788487Y-38753380D01*
X164656632Y-38621525D01*
X164413411Y-38459010D01*
X164143158Y-38347068D01*
X163856260Y-38290000D01*
X163563740Y-38290000D01*
X163276842Y-38347068D01*
X163006589Y-38459010D01*
X162763368Y-38621525D01*
X162556525Y-38828368D01*
X162440000Y-39002760D01*
X162323475Y-38828368D01*
X162116632Y-38621525D01*
X161873411Y-38459010D01*
X161603158Y-38347068D01*
X161316260Y-38290000D01*
X161023740Y-38290000D01*
X160736842Y-38347068D01*
X160466589Y-38459010D01*
X160223368Y-38621525D01*
X160016525Y-38828368D01*
X159900000Y-39002760D01*
X159783475Y-38828368D01*
X159576632Y-38621525D01*
X159565000Y-38613753D01*
X159565000Y-37750932D01*
X159569524Y-37705000D01*
X159551471Y-37521708D01*
X159498007Y-37345460D01*
X159411186Y-37183028D01*
X159294344Y-37040656D01*
X159258659Y-37011370D01*
X158432289Y-36185000D01*
X164737711Y-36185000D01*
X165315001Y-36762291D01*
G37*
X165315001Y-36762291D02*
X165315000Y-38295299D01*
X165275518Y-38299188D01*
X165155820Y-38335498D01*
X165045506Y-38394463D01*
X164948815Y-38473815D01*
X164869463Y-38570506D01*
X164810498Y-38680820D01*
X164788487Y-38753380D01*
X164656632Y-38621525D01*
X164413411Y-38459010D01*
X164143158Y-38347068D01*
X163856260Y-38290000D01*
X163563740Y-38290000D01*
X163276842Y-38347068D01*
X163006589Y-38459010D01*
X162763368Y-38621525D01*
X162556525Y-38828368D01*
X162440000Y-39002760D01*
X162323475Y-38828368D01*
X162116632Y-38621525D01*
X161873411Y-38459010D01*
X161603158Y-38347068D01*
X161316260Y-38290000D01*
X161023740Y-38290000D01*
X160736842Y-38347068D01*
X160466589Y-38459010D01*
X160223368Y-38621525D01*
X160016525Y-38828368D01*
X159900000Y-39002760D01*
X159783475Y-38828368D01*
X159576632Y-38621525D01*
X159565000Y-38613753D01*
X159565000Y-37750932D01*
X159569524Y-37705000D01*
X159551471Y-37521708D01*
X159498007Y-37345460D01*
X159411186Y-37183028D01*
X159294344Y-37040656D01*
X159258659Y-37011370D01*
X158432289Y-36185000D01*
X164737711Y-36185000D01*
X165315001Y-36762291D01*
G36*
X121990000Y-43412289D02*
G01*
X121990001Y-76462710D01*
X119987711Y-78465000D01*
X118929701Y-78465000D01*
X118925812Y-78425518D01*
X118889502Y-78305820D01*
X118830537Y-78195506D01*
X118751185Y-78098815D01*
X118654494Y-78019463D01*
X118544180Y-77960498D01*
X118471620Y-77938487D01*
X118603475Y-77806632D01*
X118765990Y-77563411D01*
X118877932Y-77293158D01*
X118935000Y-77006260D01*
X118935000Y-76713740D01*
X118877932Y-76426842D01*
X118765990Y-76156589D01*
X118603475Y-75913368D01*
X118396632Y-75706525D01*
X118222240Y-75590000D01*
X118396632Y-75473475D01*
X118603475Y-75266632D01*
X118765990Y-75023411D01*
X118877932Y-74753158D01*
X118935000Y-74466260D01*
X118935000Y-74173740D01*
X118877932Y-73886842D01*
X118765990Y-73616589D01*
X118603475Y-73373368D01*
X118396632Y-73166525D01*
X118222240Y-73050000D01*
X118396632Y-72933475D01*
X118603475Y-72726632D01*
X118765990Y-72483411D01*
X118877932Y-72213158D01*
X118935000Y-71926260D01*
X118935000Y-71633740D01*
X118877932Y-71346842D01*
X118765990Y-71076589D01*
X118603475Y-70833368D01*
X118396632Y-70626525D01*
X118222240Y-70510000D01*
X118396632Y-70393475D01*
X118603475Y-70186632D01*
X118765990Y-69943411D01*
X118877932Y-69673158D01*
X118935000Y-69386260D01*
X118935000Y-69093740D01*
X118877932Y-68806842D01*
X118765990Y-68536589D01*
X118603475Y-68293368D01*
X118396632Y-68086525D01*
X118222240Y-67970000D01*
X118396632Y-67853475D01*
X118603475Y-67646632D01*
X118765990Y-67403411D01*
X118877932Y-67133158D01*
X118935000Y-66846260D01*
X118935000Y-66553740D01*
X118877932Y-66266842D01*
X118765990Y-65996589D01*
X118603475Y-65753368D01*
X118396632Y-65546525D01*
X118222240Y-65430000D01*
X118396632Y-65313475D01*
X118603475Y-65106632D01*
X118765990Y-64863411D01*
X118877932Y-64593158D01*
X118935000Y-64306260D01*
X118935000Y-64013740D01*
X118877932Y-63726842D01*
X118765990Y-63456589D01*
X118603475Y-63213368D01*
X118396632Y-63006525D01*
X118222240Y-62890000D01*
X118396632Y-62773475D01*
X118603475Y-62566632D01*
X118765990Y-62323411D01*
X118877932Y-62053158D01*
X118935000Y-61766260D01*
X118935000Y-61473740D01*
X118877932Y-61186842D01*
X118765990Y-60916589D01*
X118603475Y-60673368D01*
X118396632Y-60466525D01*
X118222240Y-60350000D01*
X118396632Y-60233475D01*
X118603475Y-60026632D01*
X118765990Y-59783411D01*
X118877932Y-59513158D01*
X118935000Y-59226260D01*
X118935000Y-58933740D01*
X118877932Y-58646842D01*
X118765990Y-58376589D01*
X118603475Y-58133368D01*
X118396632Y-57926525D01*
X118222240Y-57810000D01*
X118396632Y-57693475D01*
X118603475Y-57486632D01*
X118765990Y-57243411D01*
X118877932Y-56973158D01*
X118935000Y-56686260D01*
X118935000Y-56393740D01*
X118877932Y-56106842D01*
X118765990Y-55836589D01*
X118603475Y-55593368D01*
X118396632Y-55386525D01*
X118222240Y-55270000D01*
X118396632Y-55153475D01*
X118603475Y-54946632D01*
X118765990Y-54703411D01*
X118877932Y-54433158D01*
X118935000Y-54146260D01*
X118935000Y-53853740D01*
X118877932Y-53566842D01*
X118765990Y-53296589D01*
X118603475Y-53053368D01*
X118396632Y-52846525D01*
X118222240Y-52730000D01*
X118396632Y-52613475D01*
X118603475Y-52406632D01*
X118765990Y-52163411D01*
X118877932Y-51893158D01*
X118935000Y-51606260D01*
X118935000Y-51313740D01*
X118877932Y-51026842D01*
X118765990Y-50756589D01*
X118603475Y-50513368D01*
X118396632Y-50306525D01*
X118222240Y-50190000D01*
X118396632Y-50073475D01*
X118603475Y-49866632D01*
X118765990Y-49623411D01*
X118877932Y-49353158D01*
X118935000Y-49066260D01*
X118935000Y-48773740D01*
X118877932Y-48486842D01*
X118765990Y-48216589D01*
X118603475Y-47973368D01*
X118396632Y-47766525D01*
X118222240Y-47650000D01*
X118396632Y-47533475D01*
X118603475Y-47326632D01*
X118765990Y-47083411D01*
X118877932Y-46813158D01*
X118935000Y-46526260D01*
X118935000Y-46233740D01*
X118877932Y-45946842D01*
X118765990Y-45676589D01*
X118603475Y-45433368D01*
X118396632Y-45226525D01*
X118222240Y-45110000D01*
X118396632Y-44993475D01*
X118603475Y-44786632D01*
X118765990Y-44543411D01*
X118877932Y-44273158D01*
X118935000Y-43986260D01*
X118935000Y-43693740D01*
X118877932Y-43406842D01*
X118765990Y-43136589D01*
X118603475Y-42893368D01*
X118396632Y-42686525D01*
X118153411Y-42524010D01*
X117883158Y-42412068D01*
X117596260Y-42355000D01*
X117303740Y-42355000D01*
X117016842Y-42412068D01*
X116746589Y-42524010D01*
X116503368Y-42686525D01*
X116296525Y-42893368D01*
X116134010Y-43136589D01*
X116022068Y-43406842D01*
X115965000Y-43693740D01*
X115965000Y-43986260D01*
X116022068Y-44273158D01*
X116134010Y-44543411D01*
X116296525Y-44786632D01*
X116503368Y-44993475D01*
X116677760Y-45110000D01*
X116503368Y-45226525D01*
X116296525Y-45433368D01*
X116134010Y-45676589D01*
X116022068Y-45946842D01*
X115965000Y-46233740D01*
X115965000Y-46526260D01*
X116022068Y-46813158D01*
X116134010Y-47083411D01*
X116296525Y-47326632D01*
X116503368Y-47533475D01*
X116677760Y-47650000D01*
X116503368Y-47766525D01*
X116296525Y-47973368D01*
X116134010Y-48216589D01*
X116022068Y-48486842D01*
X115965000Y-48773740D01*
X115965000Y-49066260D01*
X116022068Y-49353158D01*
X116134010Y-49623411D01*
X116296525Y-49866632D01*
X116503368Y-50073475D01*
X116677760Y-50190000D01*
X116503368Y-50306525D01*
X116296525Y-50513368D01*
X116134010Y-50756589D01*
X116022068Y-51026842D01*
X115965000Y-51313740D01*
X115965000Y-51606260D01*
X116022068Y-51893158D01*
X116134010Y-52163411D01*
X116296525Y-52406632D01*
X116503368Y-52613475D01*
X116677760Y-52730000D01*
X116503368Y-52846525D01*
X116296525Y-53053368D01*
X116134010Y-53296589D01*
X116022068Y-53566842D01*
X115965000Y-53853740D01*
X115965000Y-54146260D01*
X116022068Y-54433158D01*
X116134010Y-54703411D01*
X116296525Y-54946632D01*
X116503368Y-55153475D01*
X116677760Y-55270000D01*
X116503368Y-55386525D01*
X116296525Y-55593368D01*
X116134010Y-55836589D01*
X116022068Y-56106842D01*
X115965000Y-56393740D01*
X115965000Y-56686260D01*
X116022068Y-56973158D01*
X116134010Y-57243411D01*
X116296525Y-57486632D01*
X116503368Y-57693475D01*
X116677760Y-57810000D01*
X116503368Y-57926525D01*
X116296525Y-58133368D01*
X116134010Y-58376589D01*
X116022068Y-58646842D01*
X115965000Y-58933740D01*
X115965000Y-59226260D01*
X116022068Y-59513158D01*
X116134010Y-59783411D01*
X116296525Y-60026632D01*
X116503368Y-60233475D01*
X116677760Y-60350000D01*
X116503368Y-60466525D01*
X116296525Y-60673368D01*
X116134010Y-60916589D01*
X116022068Y-61186842D01*
X115965000Y-61473740D01*
X115965000Y-61766260D01*
X116022068Y-62053158D01*
X116134010Y-62323411D01*
X116296525Y-62566632D01*
X116503368Y-62773475D01*
X116677760Y-62890000D01*
X116503368Y-63006525D01*
X116296525Y-63213368D01*
X116134010Y-63456589D01*
X116022068Y-63726842D01*
X115965000Y-64013740D01*
X115965000Y-64306260D01*
X116022068Y-64593158D01*
X116134010Y-64863411D01*
X116296525Y-65106632D01*
X116503368Y-65313475D01*
X116677760Y-65430000D01*
X116503368Y-65546525D01*
X116296525Y-65753368D01*
X116134010Y-65996589D01*
X116022068Y-66266842D01*
X115965000Y-66553740D01*
X115965000Y-66846260D01*
X116022068Y-67133158D01*
X116134010Y-67403411D01*
X116296525Y-67646632D01*
X116503368Y-67853475D01*
X116677760Y-67970000D01*
X116503368Y-68086525D01*
X116296525Y-68293368D01*
X116134010Y-68536589D01*
X116022068Y-68806842D01*
X115965000Y-69093740D01*
X115965000Y-69386260D01*
X116022068Y-69673158D01*
X116134010Y-69943411D01*
X116296525Y-70186632D01*
X116503368Y-70393475D01*
X116677760Y-70510000D01*
X116503368Y-70626525D01*
X116296525Y-70833368D01*
X116134010Y-71076589D01*
X116022068Y-71346842D01*
X115965000Y-71633740D01*
X115965000Y-71926260D01*
X116022068Y-72213158D01*
X116134010Y-72483411D01*
X116296525Y-72726632D01*
X116503368Y-72933475D01*
X116677760Y-73050000D01*
X116503368Y-73166525D01*
X116296525Y-73373368D01*
X116134010Y-73616589D01*
X116022068Y-73886842D01*
X115965000Y-74173740D01*
X115965000Y-74466260D01*
X116022068Y-74753158D01*
X116134010Y-75023411D01*
X116296525Y-75266632D01*
X116503368Y-75473475D01*
X116677760Y-75590000D01*
X116503368Y-75706525D01*
X116296525Y-75913368D01*
X116288753Y-75925000D01*
X113822289Y-75925000D01*
X110935000Y-73037711D01*
X110935000Y-52923685D01*
X111075799Y-52782886D01*
X111211928Y-52579155D01*
X111211928Y-52625000D01*
X111224188Y-52749482D01*
X111260498Y-52869180D01*
X111319463Y-52979494D01*
X111398815Y-53076185D01*
X111495506Y-53155537D01*
X111605820Y-53214502D01*
X111725518Y-53250812D01*
X111850000Y-53263072D01*
X113350000Y-53263072D01*
X113474482Y-53250812D01*
X113594180Y-53214502D01*
X113704494Y-53155537D01*
X113801185Y-53076185D01*
X113880537Y-52979494D01*
X113939502Y-52869180D01*
X113975812Y-52749482D01*
X113988072Y-52625000D01*
X113988072Y-51125000D01*
X113975812Y-51000518D01*
X113939502Y-50880820D01*
X113880537Y-50770506D01*
X113801185Y-50673815D01*
X113704494Y-50594463D01*
X113594180Y-50535498D01*
X113535000Y-50517546D01*
X113535000Y-42237289D01*
X114587289Y-41185000D01*
X119762711Y-41185000D01*
X121990000Y-43412289D01*
G37*
X121990000Y-43412289D02*
X121990001Y-76462710D01*
X119987711Y-78465000D01*
X118929701Y-78465000D01*
X118925812Y-78425518D01*
X118889502Y-78305820D01*
X118830537Y-78195506D01*
X118751185Y-78098815D01*
X118654494Y-78019463D01*
X118544180Y-77960498D01*
X118471620Y-77938487D01*
X118603475Y-77806632D01*
X118765990Y-77563411D01*
X118877932Y-77293158D01*
X118935000Y-77006260D01*
X118935000Y-76713740D01*
X118877932Y-76426842D01*
X118765990Y-76156589D01*
X118603475Y-75913368D01*
X118396632Y-75706525D01*
X118222240Y-75590000D01*
X118396632Y-75473475D01*
X118603475Y-75266632D01*
X118765990Y-75023411D01*
X118877932Y-74753158D01*
X118935000Y-74466260D01*
X118935000Y-74173740D01*
X118877932Y-73886842D01*
X118765990Y-73616589D01*
X118603475Y-73373368D01*
X118396632Y-73166525D01*
X118222240Y-73050000D01*
X118396632Y-72933475D01*
X118603475Y-72726632D01*
X118765990Y-72483411D01*
X118877932Y-72213158D01*
X118935000Y-71926260D01*
X118935000Y-71633740D01*
X118877932Y-71346842D01*
X118765990Y-71076589D01*
X118603475Y-70833368D01*
X118396632Y-70626525D01*
X118222240Y-70510000D01*
X118396632Y-70393475D01*
X118603475Y-70186632D01*
X118765990Y-69943411D01*
X118877932Y-69673158D01*
X118935000Y-69386260D01*
X118935000Y-69093740D01*
X118877932Y-68806842D01*
X118765990Y-68536589D01*
X118603475Y-68293368D01*
X118396632Y-68086525D01*
X118222240Y-67970000D01*
X118396632Y-67853475D01*
X118603475Y-67646632D01*
X118765990Y-67403411D01*
X118877932Y-67133158D01*
X118935000Y-66846260D01*
X118935000Y-66553740D01*
X118877932Y-66266842D01*
X118765990Y-65996589D01*
X118603475Y-65753368D01*
X118396632Y-65546525D01*
X118222240Y-65430000D01*
X118396632Y-65313475D01*
X118603475Y-65106632D01*
X118765990Y-64863411D01*
X118877932Y-64593158D01*
X118935000Y-64306260D01*
X118935000Y-64013740D01*
X118877932Y-63726842D01*
X118765990Y-63456589D01*
X118603475Y-63213368D01*
X118396632Y-63006525D01*
X118222240Y-62890000D01*
X118396632Y-62773475D01*
X118603475Y-62566632D01*
X118765990Y-62323411D01*
X118877932Y-62053158D01*
X118935000Y-61766260D01*
X118935000Y-61473740D01*
X118877932Y-61186842D01*
X118765990Y-60916589D01*
X118603475Y-60673368D01*
X118396632Y-60466525D01*
X118222240Y-60350000D01*
X118396632Y-60233475D01*
X118603475Y-60026632D01*
X118765990Y-59783411D01*
X118877932Y-59513158D01*
X118935000Y-59226260D01*
X118935000Y-58933740D01*
X118877932Y-58646842D01*
X118765990Y-58376589D01*
X118603475Y-58133368D01*
X118396632Y-57926525D01*
X118222240Y-57810000D01*
X118396632Y-57693475D01*
X118603475Y-57486632D01*
X118765990Y-57243411D01*
X118877932Y-56973158D01*
X118935000Y-56686260D01*
X118935000Y-56393740D01*
X118877932Y-56106842D01*
X118765990Y-55836589D01*
X118603475Y-55593368D01*
X118396632Y-55386525D01*
X118222240Y-55270000D01*
X118396632Y-55153475D01*
X118603475Y-54946632D01*
X118765990Y-54703411D01*
X118877932Y-54433158D01*
X118935000Y-54146260D01*
X118935000Y-53853740D01*
X118877932Y-53566842D01*
X118765990Y-53296589D01*
X118603475Y-53053368D01*
X118396632Y-52846525D01*
X118222240Y-52730000D01*
X118396632Y-52613475D01*
X118603475Y-52406632D01*
X118765990Y-52163411D01*
X118877932Y-51893158D01*
X118935000Y-51606260D01*
X118935000Y-51313740D01*
X118877932Y-51026842D01*
X118765990Y-50756589D01*
X118603475Y-50513368D01*
X118396632Y-50306525D01*
X118222240Y-50190000D01*
X118396632Y-50073475D01*
X118603475Y-49866632D01*
X118765990Y-49623411D01*
X118877932Y-49353158D01*
X118935000Y-49066260D01*
X118935000Y-48773740D01*
X118877932Y-48486842D01*
X118765990Y-48216589D01*
X118603475Y-47973368D01*
X118396632Y-47766525D01*
X118222240Y-47650000D01*
X118396632Y-47533475D01*
X118603475Y-47326632D01*
X118765990Y-47083411D01*
X118877932Y-46813158D01*
X118935000Y-46526260D01*
X118935000Y-46233740D01*
X118877932Y-45946842D01*
X118765990Y-45676589D01*
X118603475Y-45433368D01*
X118396632Y-45226525D01*
X118222240Y-45110000D01*
X118396632Y-44993475D01*
X118603475Y-44786632D01*
X118765990Y-44543411D01*
X118877932Y-44273158D01*
X118935000Y-43986260D01*
X118935000Y-43693740D01*
X118877932Y-43406842D01*
X118765990Y-43136589D01*
X118603475Y-42893368D01*
X118396632Y-42686525D01*
X118153411Y-42524010D01*
X117883158Y-42412068D01*
X117596260Y-42355000D01*
X117303740Y-42355000D01*
X117016842Y-42412068D01*
X116746589Y-42524010D01*
X116503368Y-42686525D01*
X116296525Y-42893368D01*
X116134010Y-43136589D01*
X116022068Y-43406842D01*
X115965000Y-43693740D01*
X115965000Y-43986260D01*
X116022068Y-44273158D01*
X116134010Y-44543411D01*
X116296525Y-44786632D01*
X116503368Y-44993475D01*
X116677760Y-45110000D01*
X116503368Y-45226525D01*
X116296525Y-45433368D01*
X116134010Y-45676589D01*
X116022068Y-45946842D01*
X115965000Y-46233740D01*
X115965000Y-46526260D01*
X116022068Y-46813158D01*
X116134010Y-47083411D01*
X116296525Y-47326632D01*
X116503368Y-47533475D01*
X116677760Y-47650000D01*
X116503368Y-47766525D01*
X116296525Y-47973368D01*
X116134010Y-48216589D01*
X116022068Y-48486842D01*
X115965000Y-48773740D01*
X115965000Y-49066260D01*
X116022068Y-49353158D01*
X116134010Y-49623411D01*
X116296525Y-49866632D01*
X116503368Y-50073475D01*
X116677760Y-50190000D01*
X116503368Y-50306525D01*
X116296525Y-50513368D01*
X116134010Y-50756589D01*
X116022068Y-51026842D01*
X115965000Y-51313740D01*
X115965000Y-51606260D01*
X116022068Y-51893158D01*
X116134010Y-52163411D01*
X116296525Y-52406632D01*
X116503368Y-52613475D01*
X116677760Y-52730000D01*
X116503368Y-52846525D01*
X116296525Y-53053368D01*
X116134010Y-53296589D01*
X116022068Y-53566842D01*
X115965000Y-53853740D01*
X115965000Y-54146260D01*
X116022068Y-54433158D01*
X116134010Y-54703411D01*
X116296525Y-54946632D01*
X116503368Y-55153475D01*
X116677760Y-55270000D01*
X116503368Y-55386525D01*
X116296525Y-55593368D01*
X116134010Y-55836589D01*
X116022068Y-56106842D01*
X115965000Y-56393740D01*
X115965000Y-56686260D01*
X116022068Y-56973158D01*
X116134010Y-57243411D01*
X116296525Y-57486632D01*
X116503368Y-57693475D01*
X116677760Y-57810000D01*
X116503368Y-57926525D01*
X116296525Y-58133368D01*
X116134010Y-58376589D01*
X116022068Y-58646842D01*
X115965000Y-58933740D01*
X115965000Y-59226260D01*
X116022068Y-59513158D01*
X116134010Y-59783411D01*
X116296525Y-60026632D01*
X116503368Y-60233475D01*
X116677760Y-60350000D01*
X116503368Y-60466525D01*
X116296525Y-60673368D01*
X116134010Y-60916589D01*
X116022068Y-61186842D01*
X115965000Y-61473740D01*
X115965000Y-61766260D01*
X116022068Y-62053158D01*
X116134010Y-62323411D01*
X116296525Y-62566632D01*
X116503368Y-62773475D01*
X116677760Y-62890000D01*
X116503368Y-63006525D01*
X116296525Y-63213368D01*
X116134010Y-63456589D01*
X116022068Y-63726842D01*
X115965000Y-64013740D01*
X115965000Y-64306260D01*
X116022068Y-64593158D01*
X116134010Y-64863411D01*
X116296525Y-65106632D01*
X116503368Y-65313475D01*
X116677760Y-65430000D01*
X116503368Y-65546525D01*
X116296525Y-65753368D01*
X116134010Y-65996589D01*
X116022068Y-66266842D01*
X115965000Y-66553740D01*
X115965000Y-66846260D01*
X116022068Y-67133158D01*
X116134010Y-67403411D01*
X116296525Y-67646632D01*
X116503368Y-67853475D01*
X116677760Y-67970000D01*
X116503368Y-68086525D01*
X116296525Y-68293368D01*
X116134010Y-68536589D01*
X116022068Y-68806842D01*
X115965000Y-69093740D01*
X115965000Y-69386260D01*
X116022068Y-69673158D01*
X116134010Y-69943411D01*
X116296525Y-70186632D01*
X116503368Y-70393475D01*
X116677760Y-70510000D01*
X116503368Y-70626525D01*
X116296525Y-70833368D01*
X116134010Y-71076589D01*
X116022068Y-71346842D01*
X115965000Y-71633740D01*
X115965000Y-71926260D01*
X116022068Y-72213158D01*
X116134010Y-72483411D01*
X116296525Y-72726632D01*
X116503368Y-72933475D01*
X116677760Y-73050000D01*
X116503368Y-73166525D01*
X116296525Y-73373368D01*
X116134010Y-73616589D01*
X116022068Y-73886842D01*
X115965000Y-74173740D01*
X115965000Y-74466260D01*
X116022068Y-74753158D01*
X116134010Y-75023411D01*
X116296525Y-75266632D01*
X116503368Y-75473475D01*
X116677760Y-75590000D01*
X116503368Y-75706525D01*
X116296525Y-75913368D01*
X116288753Y-75925000D01*
X113822289Y-75925000D01*
X110935000Y-73037711D01*
X110935000Y-52923685D01*
X111075799Y-52782886D01*
X111211928Y-52579155D01*
X111211928Y-52625000D01*
X111224188Y-52749482D01*
X111260498Y-52869180D01*
X111319463Y-52979494D01*
X111398815Y-53076185D01*
X111495506Y-53155537D01*
X111605820Y-53214502D01*
X111725518Y-53250812D01*
X111850000Y-53263072D01*
X113350000Y-53263072D01*
X113474482Y-53250812D01*
X113594180Y-53214502D01*
X113704494Y-53155537D01*
X113801185Y-53076185D01*
X113880537Y-52979494D01*
X113939502Y-52869180D01*
X113975812Y-52749482D01*
X113988072Y-52625000D01*
X113988072Y-51125000D01*
X113975812Y-51000518D01*
X113939502Y-50880820D01*
X113880537Y-50770506D01*
X113801185Y-50673815D01*
X113704494Y-50594463D01*
X113594180Y-50535498D01*
X113535000Y-50517546D01*
X113535000Y-42237289D01*
X114587289Y-41185000D01*
X119762711Y-41185000D01*
X121990000Y-43412289D01*
M02*
