%TF.GenerationSoftware,KiCad,Pcbnew,5.1.6-c6e7f7d~87~ubuntu20.04.1*%
%TF.CreationDate,2020-08-02T16:50:31-04:00*%
%TF.ProjectId,GaitPCB2,47616974-5043-4423-922e-6b696361645f,rev?*%
%TF.SameCoordinates,Original*%
%TF.FileFunction,Legend,Top*%
%TF.FilePolarity,Positive*%
%FSLAX46Y46*%
G04 Gerber Fmt 4.6, Leading zero omitted, Abs format (unit mm)*
G04 Created by KiCad (PCBNEW 5.1.6-c6e7f7d~87~ubuntu20.04.1) date 2020-08-02 16:50:31*
%MOMM*%
%LPD*%
G01*
G04 APERTURE LIST*
%ADD10C,0.120000*%
%ADD11C,0.150000*%
G04 APERTURE END LIST*
D10*
X106250000Y-90250000D02*
X106250000Y-89200000D01*
X80275000Y-90250000D02*
X106250000Y-90250000D01*
X80275000Y-34975000D02*
X80275000Y-90250000D01*
X106250000Y-35025000D02*
X80275000Y-34975000D01*
X106250000Y-90200000D02*
X106250000Y-35025000D01*
%TO.C,J3*%
X118780000Y-78130000D02*
X116120000Y-78130000D01*
X118780000Y-78130000D02*
X118780000Y-42510000D01*
X118780000Y-42510000D02*
X116120000Y-42510000D01*
X116120000Y-78130000D02*
X116120000Y-42510000D01*
X116120000Y-80730000D02*
X116120000Y-79400000D01*
X117450000Y-80730000D02*
X116120000Y-80730000D01*
%TO.C,J2*%
X142925000Y-80705000D02*
X141595000Y-80705000D01*
X141595000Y-80705000D02*
X141595000Y-79375000D01*
X141595000Y-78105000D02*
X141595000Y-42485000D01*
X144255000Y-42485000D02*
X141595000Y-42485000D01*
X144255000Y-78105000D02*
X144255000Y-42485000D01*
X144255000Y-78105000D02*
X141595000Y-78105000D01*
%TO.C,D1*%
X166640000Y-64220000D02*
X166640000Y-61130000D01*
X166580000Y-62675000D02*
G75*
G03*
X166580000Y-62675000I-2500000J0D01*
G01*
X161090000Y-62674538D02*
G75*
G03*
X166640000Y-64219830I2990000J-462D01*
G01*
X161090000Y-62675462D02*
G75*
G02*
X166640000Y-61130170I2990000J462D01*
G01*
%TO.C,D2*%
X166565000Y-72895000D02*
X166565000Y-69805000D01*
X166505000Y-71350000D02*
G75*
G03*
X166505000Y-71350000I-2500000J0D01*
G01*
X161015000Y-71349538D02*
G75*
G03*
X166565000Y-72894830I2990000J-462D01*
G01*
X161015000Y-71350462D02*
G75*
G02*
X166565000Y-69805170I2990000J462D01*
G01*
%TO.C,D3*%
X166640000Y-83920000D02*
X166640000Y-80830000D01*
X166580000Y-82375000D02*
G75*
G03*
X166580000Y-82375000I-2500000J0D01*
G01*
X161090000Y-82374538D02*
G75*
G03*
X166640000Y-83919830I2990000J-462D01*
G01*
X161090000Y-82375462D02*
G75*
G02*
X166640000Y-80830170I2990000J462D01*
G01*
%TO.C,R1*%
X151595000Y-61100000D02*
X152545000Y-61100000D01*
X157335000Y-61100000D02*
X156385000Y-61100000D01*
X152545000Y-62020000D02*
X156385000Y-62020000D01*
X152545000Y-60180000D02*
X152545000Y-62020000D01*
X156385000Y-60180000D02*
X152545000Y-60180000D01*
X156385000Y-62020000D02*
X156385000Y-60180000D01*
%TO.C,R2*%
X156835000Y-72120000D02*
X156835000Y-70280000D01*
X156835000Y-70280000D02*
X152995000Y-70280000D01*
X152995000Y-70280000D02*
X152995000Y-72120000D01*
X152995000Y-72120000D02*
X156835000Y-72120000D01*
X157785000Y-71200000D02*
X156835000Y-71200000D01*
X152045000Y-71200000D02*
X152995000Y-71200000D01*
%TO.C,R3*%
X152720000Y-82575000D02*
X153670000Y-82575000D01*
X158460000Y-82575000D02*
X157510000Y-82575000D01*
X153670000Y-83495000D02*
X157510000Y-83495000D01*
X153670000Y-81655000D02*
X153670000Y-83495000D01*
X157510000Y-81655000D02*
X153670000Y-81655000D01*
X157510000Y-83495000D02*
X157510000Y-81655000D01*
%TO.C,J4*%
X167580000Y-39775000D02*
X167580000Y-41105000D01*
X167580000Y-41105000D02*
X166250000Y-41105000D01*
X164980000Y-41105000D02*
X147140000Y-41105000D01*
X147140000Y-38445000D02*
X147140000Y-41105000D01*
X164980000Y-38445000D02*
X147140000Y-38445000D01*
X164980000Y-38445000D02*
X164980000Y-41105000D01*
%TO.C,J1*%
X113460000Y-52585000D02*
X113460000Y-53210000D01*
X113460000Y-53210000D02*
X111340000Y-53210000D01*
X111340000Y-53210000D02*
X111340000Y-52294493D01*
X113110000Y-53210000D02*
X113110000Y-55210000D01*
X113110000Y-55210000D02*
X112690000Y-55210000D01*
X112690000Y-55210000D02*
X112690000Y-53210000D01*
X113050000Y-53210000D02*
X113050000Y-55210000D01*
X112930000Y-53210000D02*
X112930000Y-55210000D01*
X112810000Y-53210000D02*
X112810000Y-55210000D01*
X112400000Y-52585000D02*
X112400000Y-53210000D01*
X112110000Y-53210000D02*
X112110000Y-55210000D01*
X112110000Y-55210000D02*
X111690000Y-55210000D01*
X111690000Y-55210000D02*
X111690000Y-53210000D01*
X112900000Y-51215000D02*
X113585000Y-51215000D01*
X113585000Y-51215000D02*
X113585000Y-51900000D01*
%TO.C,J3*%
D11*
X117116666Y-81622380D02*
X117116666Y-82336666D01*
X117069047Y-82479523D01*
X116973809Y-82574761D01*
X116830952Y-82622380D01*
X116735714Y-82622380D01*
X117497619Y-81622380D02*
X118116666Y-81622380D01*
X117783333Y-82003333D01*
X117926190Y-82003333D01*
X118021428Y-82050952D01*
X118069047Y-82098571D01*
X118116666Y-82193809D01*
X118116666Y-82431904D01*
X118069047Y-82527142D01*
X118021428Y-82574761D01*
X117926190Y-82622380D01*
X117640476Y-82622380D01*
X117545238Y-82574761D01*
X117497619Y-82527142D01*
%TO.C,J2*%
X142591666Y-81597380D02*
X142591666Y-82311666D01*
X142544047Y-82454523D01*
X142448809Y-82549761D01*
X142305952Y-82597380D01*
X142210714Y-82597380D01*
X143020238Y-81692619D02*
X143067857Y-81645000D01*
X143163095Y-81597380D01*
X143401190Y-81597380D01*
X143496428Y-81645000D01*
X143544047Y-81692619D01*
X143591666Y-81787857D01*
X143591666Y-81883095D01*
X143544047Y-82025952D01*
X142972619Y-82597380D01*
X143591666Y-82597380D01*
%TO.C,D1*%
X163341904Y-67087380D02*
X163341904Y-66087380D01*
X163580000Y-66087380D01*
X163722857Y-66135000D01*
X163818095Y-66230238D01*
X163865714Y-66325476D01*
X163913333Y-66515952D01*
X163913333Y-66658809D01*
X163865714Y-66849285D01*
X163818095Y-66944523D01*
X163722857Y-67039761D01*
X163580000Y-67087380D01*
X163341904Y-67087380D01*
X164865714Y-67087380D02*
X164294285Y-67087380D01*
X164580000Y-67087380D02*
X164580000Y-66087380D01*
X164484761Y-66230238D01*
X164389523Y-66325476D01*
X164294285Y-66373095D01*
%TO.C,D2*%
X163266904Y-75762380D02*
X163266904Y-74762380D01*
X163505000Y-74762380D01*
X163647857Y-74810000D01*
X163743095Y-74905238D01*
X163790714Y-75000476D01*
X163838333Y-75190952D01*
X163838333Y-75333809D01*
X163790714Y-75524285D01*
X163743095Y-75619523D01*
X163647857Y-75714761D01*
X163505000Y-75762380D01*
X163266904Y-75762380D01*
X164219285Y-74857619D02*
X164266904Y-74810000D01*
X164362142Y-74762380D01*
X164600238Y-74762380D01*
X164695476Y-74810000D01*
X164743095Y-74857619D01*
X164790714Y-74952857D01*
X164790714Y-75048095D01*
X164743095Y-75190952D01*
X164171666Y-75762380D01*
X164790714Y-75762380D01*
%TO.C,D3*%
X163341904Y-86787380D02*
X163341904Y-85787380D01*
X163580000Y-85787380D01*
X163722857Y-85835000D01*
X163818095Y-85930238D01*
X163865714Y-86025476D01*
X163913333Y-86215952D01*
X163913333Y-86358809D01*
X163865714Y-86549285D01*
X163818095Y-86644523D01*
X163722857Y-86739761D01*
X163580000Y-86787380D01*
X163341904Y-86787380D01*
X164246666Y-85787380D02*
X164865714Y-85787380D01*
X164532380Y-86168333D01*
X164675238Y-86168333D01*
X164770476Y-86215952D01*
X164818095Y-86263571D01*
X164865714Y-86358809D01*
X164865714Y-86596904D01*
X164818095Y-86692142D01*
X164770476Y-86739761D01*
X164675238Y-86787380D01*
X164389523Y-86787380D01*
X164294285Y-86739761D01*
X164246666Y-86692142D01*
%TO.C,R1*%
X154298333Y-63472380D02*
X153965000Y-62996190D01*
X153726904Y-63472380D02*
X153726904Y-62472380D01*
X154107857Y-62472380D01*
X154203095Y-62520000D01*
X154250714Y-62567619D01*
X154298333Y-62662857D01*
X154298333Y-62805714D01*
X154250714Y-62900952D01*
X154203095Y-62948571D01*
X154107857Y-62996190D01*
X153726904Y-62996190D01*
X155250714Y-63472380D02*
X154679285Y-63472380D01*
X154965000Y-63472380D02*
X154965000Y-62472380D01*
X154869761Y-62615238D01*
X154774523Y-62710476D01*
X154679285Y-62758095D01*
%TO.C,R2*%
X154748333Y-73572380D02*
X154415000Y-73096190D01*
X154176904Y-73572380D02*
X154176904Y-72572380D01*
X154557857Y-72572380D01*
X154653095Y-72620000D01*
X154700714Y-72667619D01*
X154748333Y-72762857D01*
X154748333Y-72905714D01*
X154700714Y-73000952D01*
X154653095Y-73048571D01*
X154557857Y-73096190D01*
X154176904Y-73096190D01*
X155129285Y-72667619D02*
X155176904Y-72620000D01*
X155272142Y-72572380D01*
X155510238Y-72572380D01*
X155605476Y-72620000D01*
X155653095Y-72667619D01*
X155700714Y-72762857D01*
X155700714Y-72858095D01*
X155653095Y-73000952D01*
X155081666Y-73572380D01*
X155700714Y-73572380D01*
%TO.C,R3*%
X155423333Y-84947380D02*
X155090000Y-84471190D01*
X154851904Y-84947380D02*
X154851904Y-83947380D01*
X155232857Y-83947380D01*
X155328095Y-83995000D01*
X155375714Y-84042619D01*
X155423333Y-84137857D01*
X155423333Y-84280714D01*
X155375714Y-84375952D01*
X155328095Y-84423571D01*
X155232857Y-84471190D01*
X154851904Y-84471190D01*
X155756666Y-83947380D02*
X156375714Y-83947380D01*
X156042380Y-84328333D01*
X156185238Y-84328333D01*
X156280476Y-84375952D01*
X156328095Y-84423571D01*
X156375714Y-84518809D01*
X156375714Y-84756904D01*
X156328095Y-84852142D01*
X156280476Y-84899761D01*
X156185238Y-84947380D01*
X155899523Y-84947380D01*
X155804285Y-84899761D01*
X155756666Y-84852142D01*
%TO.C,J4*%
X168472380Y-40108333D02*
X169186666Y-40108333D01*
X169329523Y-40155952D01*
X169424761Y-40251190D01*
X169472380Y-40394047D01*
X169472380Y-40489285D01*
X168805714Y-39203571D02*
X169472380Y-39203571D01*
X168424761Y-39441666D02*
X169139047Y-39679761D01*
X169139047Y-39060714D01*
%TO.C,J1*%
X113852380Y-53608333D02*
X114566666Y-53608333D01*
X114709523Y-53655952D01*
X114804761Y-53751190D01*
X114852380Y-53894047D01*
X114852380Y-53989285D01*
X114852380Y-52608333D02*
X114852380Y-53179761D01*
X114852380Y-52894047D02*
X113852380Y-52894047D01*
X113995238Y-52989285D01*
X114090476Y-53084523D01*
X114138095Y-53179761D01*
%TD*%
M02*
