%TF.GenerationSoftware,KiCad,Pcbnew,5.1.6-c6e7f7d~87~ubuntu20.04.1*%
%TF.CreationDate,2020-08-02T16:50:31-04:00*%
%TF.ProjectId,GaitPCB2,47616974-5043-4423-922e-6b696361645f,rev?*%
%TF.SameCoordinates,Original*%
%TF.FileFunction,Copper,L1,Top*%
%TF.FilePolarity,Positive*%
%FSLAX46Y46*%
G04 Gerber Fmt 4.6, Leading zero omitted, Abs format (unit mm)*
G04 Created by KiCad (PCBNEW 5.1.6-c6e7f7d~87~ubuntu20.04.1) date 2020-08-02 16:50:31*
%MOMM*%
%LPD*%
G01*
G04 APERTURE LIST*
%TA.AperFunction,ComponentPad*%
%ADD10O,1.700000X1.700000*%
%TD*%
%TA.AperFunction,ComponentPad*%
%ADD11R,1.700000X1.700000*%
%TD*%
%TA.AperFunction,ComponentPad*%
%ADD12R,1.800000X1.800000*%
%TD*%
%TA.AperFunction,ComponentPad*%
%ADD13C,1.800000*%
%TD*%
%TA.AperFunction,ComponentPad*%
%ADD14C,1.400000*%
%TD*%
%TA.AperFunction,ComponentPad*%
%ADD15O,1.400000X1.400000*%
%TD*%
%TA.AperFunction,ComponentPad*%
%ADD16R,1.500000X1.500000*%
%TD*%
%TA.AperFunction,ComponentPad*%
%ADD17O,1.500000X1.500000*%
%TD*%
G04 APERTURE END LIST*
D10*
%TO.P,J3,15*%
%TO.N,Net-(J3-Pad15)*%
X117450000Y-43840000D03*
%TO.P,J3,14*%
%TO.N,Net-(J3-Pad14)*%
X117450000Y-46380000D03*
%TO.P,J3,13*%
%TO.N,Net-(J3-Pad13)*%
X117450000Y-48920000D03*
%TO.P,J3,12*%
%TO.N,Net-(J3-Pad12)*%
X117450000Y-51460000D03*
%TO.P,J3,11*%
%TO.N,Net-(J3-Pad11)*%
X117450000Y-54000000D03*
%TO.P,J3,10*%
%TO.N,Net-(J3-Pad10)*%
X117450000Y-56540000D03*
%TO.P,J3,9*%
%TO.N,Net-(J3-Pad9)*%
X117450000Y-59080000D03*
%TO.P,J3,8*%
%TO.N,Net-(J3-Pad8)*%
X117450000Y-61620000D03*
%TO.P,J3,7*%
%TO.N,Net-(J3-Pad7)*%
X117450000Y-64160000D03*
%TO.P,J3,6*%
%TO.N,Net-(J3-Pad6)*%
X117450000Y-66700000D03*
%TO.P,J3,5*%
%TO.N,Net-(J3-Pad5)*%
X117450000Y-69240000D03*
%TO.P,J3,4*%
%TO.N,Net-(J3-Pad4)*%
X117450000Y-71780000D03*
%TO.P,J3,3*%
%TO.N,Net-(J3-Pad3)*%
X117450000Y-74320000D03*
%TO.P,J3,2*%
%TO.N,GND*%
X117450000Y-76860000D03*
D11*
%TO.P,J3,1*%
%TO.N,VDD*%
X117450000Y-79400000D03*
%TD*%
%TO.P,J2,1*%
%TO.N,+3V3*%
X142925000Y-79375000D03*
D10*
%TO.P,J2,2*%
%TO.N,GND*%
X142925000Y-76835000D03*
%TO.P,J2,3*%
%TO.N,Net-(J2-Pad3)*%
X142925000Y-74295000D03*
%TO.P,J2,4*%
%TO.N,Net-(J2-Pad4)*%
X142925000Y-71755000D03*
%TO.P,J2,5*%
%TO.N,Net-(J2-Pad5)*%
X142925000Y-69215000D03*
%TO.P,J2,6*%
%TO.N,Net-(J2-Pad6)*%
X142925000Y-66675000D03*
%TO.P,J2,7*%
%TO.N,Net-(J2-Pad7)*%
X142925000Y-64135000D03*
%TO.P,J2,8*%
%TO.N,Net-(J2-Pad8)*%
X142925000Y-61595000D03*
%TO.P,J2,9*%
%TO.N,Net-(J2-Pad9)*%
X142925000Y-59055000D03*
%TO.P,J2,10*%
%TO.N,Net-(J2-Pad10)*%
X142925000Y-56515000D03*
%TO.P,J2,11*%
%TO.N,Net-(J2-Pad11)*%
X142925000Y-53975000D03*
%TO.P,J2,12*%
%TO.N,Net-(J2-Pad12)*%
X142925000Y-51435000D03*
%TO.P,J2,13*%
%TO.N,Net-(J2-Pad13)*%
X142925000Y-48895000D03*
%TO.P,J2,14*%
%TO.N,Net-(J2-Pad14)*%
X142925000Y-46355000D03*
%TO.P,J2,15*%
%TO.N,Net-(J2-Pad15)*%
X142925000Y-43815000D03*
%TD*%
D12*
%TO.P,D1,1*%
%TO.N,GND*%
X165350000Y-62675000D03*
D13*
%TO.P,D1,2*%
%TO.N,Net-(D1-Pad2)*%
X162810000Y-62675000D03*
%TD*%
D12*
%TO.P,D2,1*%
%TO.N,GND*%
X165275000Y-71350000D03*
D13*
%TO.P,D2,2*%
%TO.N,Net-(D2-Pad2)*%
X162735000Y-71350000D03*
%TD*%
D12*
%TO.P,D3,1*%
%TO.N,GND*%
X165350000Y-82375000D03*
D13*
%TO.P,D3,2*%
%TO.N,Net-(D3-Pad2)*%
X162810000Y-82375000D03*
%TD*%
D14*
%TO.P,R1,1*%
%TO.N,Net-(D1-Pad2)*%
X158275000Y-61100000D03*
D15*
%TO.P,R1,2*%
%TO.N,Net-(J2-Pad5)*%
X150655000Y-61100000D03*
%TD*%
%TO.P,R2,2*%
%TO.N,Net-(J2-Pad4)*%
X151105000Y-71200000D03*
D14*
%TO.P,R2,1*%
%TO.N,Net-(D2-Pad2)*%
X158725000Y-71200000D03*
%TD*%
%TO.P,R3,1*%
%TO.N,Net-(D3-Pad2)*%
X159400000Y-82575000D03*
D15*
%TO.P,R3,2*%
%TO.N,Net-(J2-Pad3)*%
X151780000Y-82575000D03*
%TD*%
D11*
%TO.P,J4,1*%
%TO.N,+3V3*%
X166250000Y-39775000D03*
D10*
%TO.P,J4,2*%
%TO.N,GND*%
X163710000Y-39775000D03*
%TO.P,J4,3*%
%TO.N,Net-(J2-Pad14)*%
X161170000Y-39775000D03*
%TO.P,J4,4*%
%TO.N,Net-(J2-Pad11)*%
X158630000Y-39775000D03*
%TO.P,J4,5*%
%TO.N,Net-(J4-Pad5)*%
X156090000Y-39775000D03*
%TO.P,J4,6*%
%TO.N,Net-(J4-Pad6)*%
X153550000Y-39775000D03*
%TO.P,J4,7*%
%TO.N,Net-(J4-Pad7)*%
X151010000Y-39775000D03*
%TO.P,J4,8*%
%TO.N,Net-(J2-Pad15)*%
X148470000Y-39775000D03*
%TD*%
D16*
%TO.P,J1,1*%
%TO.N,VDD*%
X112600000Y-51875000D03*
D17*
%TO.P,J1,2*%
%TO.N,GND*%
X110000000Y-51900000D03*
%TD*%
M02*
