M48
; DRILL file {KiCad 5.1.6-c6e7f7d~87~ubuntu20.04.1} date Sun Aug  2 16:50:41 2020
; FORMAT={-:-/ absolute / inch / decimal}
; #@! TF.CreationDate,2020-08-02T16:50:41-04:00
; #@! TF.GenerationSoftware,Kicad,Pcbnew,5.1.6-c6e7f7d~87~ubuntu20.04.1
; #@! TF.FileFunction,Plated,1,2,PTH
FMAT,2
INCH
T1C0.0394
%
G90
G05
T1
X5.9756Y-3.251
X6.2756Y-3.251
X6.4098Y-2.4675
X6.5098Y-2.4675
X5.627Y-1.725
X5.627Y-1.825
X5.627Y-1.925
X5.627Y-2.025
X5.627Y-2.125
X5.627Y-2.225
X5.627Y-2.325
X5.627Y-2.425
X5.627Y-2.525
X5.627Y-2.625
X5.627Y-2.725
X5.627Y-2.825
X5.627Y-2.925
X5.627Y-3.025
X5.627Y-3.125
X4.624Y-1.726
X4.624Y-1.826
X4.624Y-1.926
X4.624Y-2.026
X4.624Y-2.126
X4.624Y-2.226
X4.624Y-2.326
X4.624Y-2.426
X4.624Y-2.526
X4.624Y-2.626
X4.624Y-2.726
X4.624Y-2.826
X4.624Y-2.926
X4.624Y-3.026
X4.624Y-3.126
X5.949Y-2.8031
X6.249Y-2.8031
X4.3307Y-2.0433
X4.4331Y-2.0423
X6.4098Y-3.2431
X6.5098Y-3.2431
X5.9313Y-2.4055
X6.2313Y-2.4055
X5.8453Y-1.5659
X5.9453Y-1.5659
X6.0453Y-1.5659
X6.1453Y-1.5659
X6.2453Y-1.5659
X6.3453Y-1.5659
X6.4453Y-1.5659
X6.5453Y-1.5659
X6.4069Y-2.8091
X6.5069Y-2.8091
T0
M30
